<?xml version="1.0" standalone="no"?>
<!DOCTYPE svg PUBLIC "-//W3C//DTD SVG 1.1//EN" "http://www.w3.org/Graphics/SVG/1.1/DTD/svg11.dtd" >
<svg xmlns="http://www.w3.org/2000/svg">
<metadata></metadata>
<defs>
<font id="baskervald_adf_stdbold" horiz-adv-x="1665" >
<font-face units-per-em="2048" ascent="1495" descent="-553" />
<missing-glyph horiz-adv-x="614" />
<glyph unicode="AE" horiz-adv-x="1951" d="M0 0v102q90 0 141.5 37.5t89.5 114.5l486 967q-3 27 -23.5 35t-60.5 8h-55v102h1171l47 -367h-149q-38 147 -95.5 202.5t-187.5 55.5h-205v-442h111q108 0 112 184h160v-489h-160q-2 93 -23 141.5t-81 48.5h-119v-434q0 -50 14.5 -83.5t43 -50t60 -22.5t75.5 -6 q180 0 274.5 79t130.5 268h148l-35 -451h-1221v100q47 2 73.5 4.5t53.5 9.5t39.5 17t23 28.5t14 43.5t3.5 63v367h-244l-196 -410q-13 -33 -13 -49t6 -28t20 -19.5t25.5 -12.5t34 -8t33.5 -4t35 -2v-100h-557zM659 739h197v465z" />
<glyph unicode="ae" horiz-adv-x="1452" d="M74 209q0 73 33 134t102 93q152 79 358 107q0 48 -3 81.5t-12.5 73.5t-33 61t-59.5 21q-50 0 -79 -20.5t-40 -50t-21 -59t-32 -50t-62 -20.5q-47 0 -93 20t-46 53q0 54 37 100t93.5 73.5t118.5 43t116 15.5q91 0 153 -22.5t119 -80.5q109 103 260 103q125 0 215.5 -59 t134 -156.5t43.5 -220.5h-557q2 -65 11.5 -121.5t31.5 -112.5t64 -88.5t100 -32.5q37 0 69 10.5t63 36.5t50 46t54 61l127 -45q-65 -109 -168.5 -167.5t-225.5 -58.5q-99 0 -187.5 41t-148.5 115q-56 -68 -145.5 -112t-175.5 -44q-118 0 -191 66t-73 166zM342 248 q0 -63 28.5 -96t71.5 -33q40 0 77.5 27.5t58.5 76.5q-13 66 -13 142q0 54 2 79q-32 -9 -42.5 -12t-41.5 -13.5t-44.5 -18.5t-36 -24t-33 -33t-19 -41.5t-8.5 -53.5zM825 545h285q-1 47 -6 83t-18 71.5t-40 55t-67 19.5q-132 0 -154 -229z" />
<glyph unicode="OE" horiz-adv-x="2004" d="M57 690q0 141 51.5 267.5t143 220.5t225.5 149t291 55q127 -10 190 -14q70 -2 318 -2h530l43 -365h-151q-24 127 -83 191.5t-163 64.5h-240v-446h72q78 0 116.5 45.5t43.5 140.5h151v-491h-145l-25 41q-6 86 -36.5 122t-98.5 36h-78v-433q0 -103 47 -135.5t150 -32.5 q183 0 275 78t122 271h154l-39 -453h-905q-16 0 -109 -10q-80 -13 -112 -13q-171 0 -311 53t-233 148t-143.5 226t-50.5 286zM410 645q0 -93 20 -185.5t59.5 -175.5t108.5 -134.5t158 -51.5q42 0 71 8.5t44 20.5t23 36t9.5 42.5t1.5 52.5v14v977q-64 25 -135 25 q-64 0 -117 -21.5t-89.5 -57t-64.5 -87t-44.5 -105.5t-27 -119t-14 -121.5t-3.5 -117.5z" />
<glyph unicode="oe" horiz-adv-x="1603" d="M74 416q0 124 54 227t161.5 166t249.5 63q98 0 169.5 -25t129.5 -85q118 112 278 112q198 0 305 -114.5t113 -308.5h-578q1 -53 5 -97t18 -93.5t36 -83t61.5 -55.5t92.5 -22q74 0 129.5 38t114.5 114l137 -45q-82 -109 -177.5 -164t-221.5 -59q-176 0 -313 102 q-67 -56 -137 -82.5t-162 -26.5q-211 0 -338 125t-127 314zM362 426q0 -346 166 -346q164 0 164 356q0 55 -6 105t-21.5 105.5t-49.5 88.5t-83 33q-51 0 -87 -33.5t-53 -89.5t-23.5 -108.5t-6.5 -110.5zM958 545h293q-1 42 -7.5 78t-20.5 70t-42 53.5t-67 19.5 q-51 0 -87 -34.5t-51 -81.5t-18 -105z" />
<glyph unicode="&#xfb01;" horiz-adv-x="1312" d="M70 768v98h133v13q0 238 124.5 372.5t381.5 134.5q60 0 137.5 -17t144 -56t66.5 -88q0 -40 -38 -70.5t-93 -30.5q-29 0 -48.5 11.5t-27.5 29t-20.5 37.5t-27 37.5t-47.5 29t-81 11.5q-94 0 -148.5 -41.5t-54.5 -128.5v-20v-224h576q35 5 79 15v-641q0 -72 28 -105.5 t108 -34.5v-100h-521v100q74 1 99.5 35t25.5 105v340q0 97 -29.5 142t-95.5 46h-270v-526q0 -87 35.5 -113t138.5 -31v-98h-571v102q75 1 102 35.5t27 104.5v526h-133z" />
<glyph unicode="&#xfb02;" horiz-adv-x="1310" d="M70 768v98h133q0 57 3 104t13.5 102.5t28 98.5t48 85t71.5 69t101.5 44t135.5 17q63 0 113 -10q46 -12 57 -12q55 0 106 7t137 26t111 24v-1181q0 -70 27.5 -104.5t106.5 -35.5v-100h-521v100q71 1 98 36.5t27 103.5v884q0 61 -20 90q-8 -37 -35 -63.5t-68 -26.5 q-35 0 -55.5 16t-29 39t-15.5 46t-22.5 39t-42.5 16q-36 0 -61.5 -32.5t-35.5 -74t-10 -83.5v-224h180v-98h-180v-526q0 -87 35.5 -113t138.5 -31v-98h-571v102q75 1 102 35.5t27 104.5v526h-133z" />
<glyph unicode="&#xfb03;" horiz-adv-x="1933" d="M51 768v98h133q0 57 3.5 102.5t14 97t28 91t48.5 77.5t72.5 62.5t102 39t135.5 14.5q56 0 111 -17.5t95 -56t40 -88.5q0 -40 -38.5 -70.5t-93.5 -30.5q-35 0 -53 16t-23 39t-8.5 46t-16.5 39t-40 16q-36 0 -62 -32.5t-36 -74t-10 -83.5v-187h399v13q0 238 124.5 372.5 t381.5 134.5q60 0 137.5 -17t144 -56t66.5 -88q0 -40 -38 -70.5t-93 -30.5q-29 0 -48.5 11.5t-27.5 29t-20.5 37.5t-27 37.5t-47.5 29t-81 11.5q-94 0 -148.5 -41.5t-54.5 -128.5v-20v-224h576q37 6 80 15v-641q0 -72 27.5 -105.5t107.5 -34.5v-100h-520v100q74 1 99.5 35 t25.5 105v340q0 97 -29.5 142t-95.5 46h-271v-526q0 -87 35.5 -113t138.5 -31v-98h-571v102q75 1 102 35.5t27 104.5v526h-399v-526q0 -87 35.5 -113t138.5 -31v-98h-572v102q75 1 102 35.5t27 104.5v526h-133z" />
<glyph unicode="&#xfb04;" horiz-adv-x="1945" d="M51 768v98h133q0 57 3.5 102.5t14 97t28 91t48.5 77.5t72.5 62.5t102 39t135.5 14.5q56 0 111 -17.5t95 -56t40 -88.5q0 -40 -38.5 -70.5t-93.5 -30.5q-35 0 -53 16t-23 39t-8.5 46t-16.5 39t-40 16q-36 0 -62 -32.5t-36 -74t-10 -83.5v-187h399q0 57 3 104t13.5 102.5 t28 98.5t48 85t71.5 69t101.5 44t135.5 17q63 0 113 -10q46 -12 57 -12q42 0 90 6t82 12.5t92 19.5t91 19v-1181q0 -70 27 -104.5t106 -35.5v-100h-520v100q71 1 98 36.5t27 103.5v884q0 60 -21 90q-8 -38 -34.5 -64t-67.5 -26q-35 0 -55.5 16t-29 39t-16 46t-23 39 t-42.5 16q-36 0 -61.5 -32.5t-35.5 -74t-10 -83.5v-224h180v-98h-180v-526q0 -87 35.5 -113t138.5 -31v-98h-571v102q75 1 102 35.5t27 104.5v526h-399v-526q0 -87 35.5 -113t138.5 -31v-98h-572v102q75 1 102 35.5t27 104.5v526h-133z" />
<glyph horiz-adv-x="2048" />
<glyph horiz-adv-x="2048" />
<glyph unicode="&#xd;" horiz-adv-x="2048" />
<glyph unicode=" "  horiz-adv-x="614" />
<glyph unicode="&#x09;" horiz-adv-x="614" />
<glyph unicode="&#xa0;" horiz-adv-x="614" />
<glyph unicode="!" horiz-adv-x="483" d="M84 1106q0 28 2.5 59.5t12.5 75.5t25.5 78t45 58t68.5 24q38 0 67.5 -22.5t46 -55t27 -75.5t13.5 -76.5t3 -65.5q-1 -94 -42 -315.5t-44 -344.5q-11 1 -34.5 3t-34.5 2t-35 -2t-35 -3q-5 118 -45.5 338.5t-40.5 321.5zM98 104q0 58 41.5 99t100.5 41t100 -41t41 -99 q0 -57 -41 -96t-100 -39t-100.5 39t-41.5 96z" />
<glyph unicode="&#x22;" horiz-adv-x="763" d="M68 1366h278q4 -40 4 -66q0 -101 -37 -217.5t-108 -218.5l-60 10q5 58 5 72q0 174 -82 420zM432 1366h279q4 -40 4 -66q0 -101 -37.5 -217.5t-108.5 -218.5l-59 10q4 46 4 72q0 174 -82 420z" />
<glyph unicode="#" horiz-adv-x="1261" d="M4 467l35 84h262q14 44 52.5 143t52.5 148h-273l33 84h268l150 442h166l-152 -442h252l151 442h166l-151 -442h241l-30 -84h-238q-13 -49 -49.5 -149t-48.5 -142h239l-32 -84h-250l-166 -469h-168l166 469h-254l-164 -469h-166l166 469h-258zM471 551h252l102 291h-256 q-13 -49 -49.5 -149t-48.5 -142z" />
<glyph unicode="$" horiz-adv-x="1048" d="M29 297q0 42 39.5 72t95.5 30q44 -2 71 -28t42.5 -63.5t31.5 -76.5t49.5 -73t85.5 -47v495q-24 12 -65.5 32t-67 32.5t-61.5 33.5t-58.5 39t-48 45t-40 55.5t-24 66.5t-9.5 81q0 173 99 273t275 114v203h164v-203q59 -10 118 -32t114 -56t89 -85t34 -109q0 -41 -29 -71 t-92 -40q-48 4 -73.5 31t-34 65t-16.5 76.5t-34.5 70.5t-75.5 42v-469l6 -2q10 -5 29 -14q51 -24 77 -37.5t71.5 -39.5t70 -45.5t56.5 -51t48 -63t28 -73t12 -88.5q0 -99 -55 -188.5t-147 -144t-196 -58.5v-217h-164v219q-46 6 -114.5 33.5t-136.5 67t-116 93.5t-48 105z M309 1047q0 -37 11.5 -67.5t36 -56t40.5 -38t47 -33.5v422q-30 -3 -50.5 -11t-42 -29.5t-32 -68.5t-10.5 -118zM608 111q62 14 107 77.5t45 145.5q0 22 -4 42t-9.5 35t-17 31.5t-19.5 26t-24.5 23.5t-24.5 19.5t-27.5 19.5t-25.5 18v-438z" />
<glyph unicode="%" horiz-adv-x="1249" d="M45 1006q0 59 15.5 118t47.5 114t90 89.5t134 34.5q60 0 110 -23.5t83 -60.5t55.5 -85t32.5 -95t10 -92t-10 -92t-32.5 -95t-55.5 -85.5t-83 -61t-110 -23.5q-75 0 -133 34.5t-90 89.5t-48 114.5t-16 118.5zM150 0l782 1366h166l-787 -1366h-161zM260 987q0 -262 72 -262 q74 0 74 272v11v10q0 272 -74 272q-72 0 -72 -270v-33zM625 346q0 57 16 116.5t48 114.5t90 90t132 35q61 0 111 -23t82.5 -60t55.5 -84.5t32.5 -95t9.5 -93.5q0 -47 -9 -94t-31 -95t-54.5 -84.5t-83.5 -59.5t-113 -23q-74 0 -132 35t-90 90t-48 114.5t-16 116.5zM844 324 q0 -258 67 -258q74 0 74 272v10v10q0 273 -74 273q-67 0 -67 -258v-25v-24z" />
<glyph unicode="&#x26;" horiz-adv-x="1460" d="M39 336q0 256 303 424q-40 62 -59 93.5t-38.5 86.5t-19.5 107q0 74 54 131.5t131.5 85.5t158.5 28q70 0 139.5 -24t120 -75.5t50.5 -117.5q0 -44 -15.5 -85t-35 -69t-56.5 -59.5t-61.5 -48.5t-67.5 -45q194 -314 231 -369q68 129 68 250q0 48 -36.5 66t-102.5 18v90h512 v-88q-60 -13 -104.5 -47t-73.5 -81.5t-51.5 -95.5t-51.5 -105.5t-59 -96.5q26 -37 45.5 -61.5t49 -55.5t61.5 -47t65 -16q40 0 83.5 25.5t76.5 70.5l106 -75q-54 -78 -139.5 -125.5t-173.5 -47.5q-105 0 -185.5 44t-154.5 129q-87 -87 -168 -130t-192 -43q-160 0 -281 108.5 t-129 250.5zM315 428q0 -104 64 -191t153 -96q106 0 181 84q-80 116 -283 447q-56 -56 -85.5 -111.5t-29.5 -132.5zM475 1067q0 -38 12 -72.5t37 -79.5t33 -63q107 95 107 201q0 54 -28.5 91.5t-68.5 37.5q-38 0 -65 -32.5t-27 -82.5z" />
<glyph unicode="'" horiz-adv-x="583" d="M76 1366h264q4 -40 4 -63q0 -116 -46 -257t-114 -235l-53 14q6 47 6 111q0 232 -61 430z" />
<glyph unicode="(" horiz-adv-x="579" d="M59 442q0 252 75 504t220 461h226q-287 -446 -287 -965q0 -518 287 -964h-226q-145 209 -220 460.5t-75 503.5z" />
<glyph unicode=")" horiz-adv-x="585" d="M0 -522q287 433 287 964q0 532 -287 965h227q145 -209 220 -461t75 -504t-75 -503.5t-220 -460.5h-227z" />
<glyph unicode="*" horiz-adv-x="886" d="M33 1141q0 34 29 58t81 24q40 0 75 -19.5t74 -49t68 -42.5q-5 27 -33 93.5t-28 105.5q0 45 38.5 71.5t96.5 26.5q63 0 102 -27.5t39 -70.5q0 -37 -27 -101.5t-30 -95.5q22 12 59 42t70.5 48.5t69.5 18.5q45 0 82 -31.5t37 -73.5q0 -40 -37 -74q-11 -17 -51.5 -20 t-96.5 -3.5t-88 -10.5q19 -19 70 -52t81.5 -65t33.5 -70q0 -34 -48.5 -66t-101.5 -32q-48 0 -74.5 33.5t-49.5 98t-38 89.5q-11 -22 -22 -58t-20 -63.5t-24 -54.5t-42 -42t-66 -15q-52 0 -93.5 35t-41.5 67q0 36 31 69.5t83.5 71t69.5 54.5q-20 6 -89 8t-107 26 q-40 17 -61 43t-21 54z" />
<glyph unicode="+" horiz-adv-x="991" d="M25 639v135h395v391h147v-391h400v-135h-400v-391h-147v391h-395z" />
<glyph unicode="," horiz-adv-x="471" d="M94 -285q79 36 123.5 90.5t44.5 102.5q0 10 -4 26q0 16 -11 32t-28 22q-61 0 -92 36t-31 91q0 114 125 114q72 -3 112 -67t40 -152q0 -84 -27.5 -155t-91.5 -127.5t-160 -81.5v69z" />
<glyph unicode="-" horiz-adv-x="745" d="M117 389v143h512v-143h-512z" />
<glyph unicode="." horiz-adv-x="485" d="M115 98q0 52 37 88.5t90 36.5t90 -36.5t37 -88.5t-37 -88.5t-90 -36.5t-90 36.5t-37 88.5z" />
<glyph unicode="/" horiz-adv-x="718" d="M-158 -522l711 1945h192l-714 -1945h-189z" />
<glyph unicode="0" horiz-adv-x="1173" d="M100 680q0 69 11 142.5t33 153t61.5 149t91 126t126.5 89t163 32.5q89 0 163.5 -32.5t126 -88.5t90 -125.5t60.5 -149t32.5 -153t10.5 -143.5t-10.5 -144t-32 -155t-60 -152t-90 -128t-126.5 -90.5t-164 -33.5q-100 0 -183.5 44t-138.5 116t-93 165t-54.5 188.5 t-16.5 189.5zM391 684q0 -41 1 -78.5t5 -103t11.5 -119.5t22 -115t34.5 -102.5t51 -69.5t70 -28t70 28t51 69.5t34.5 102.5t21.5 115t11 120t5 103t1 78t-1 77.5t-5 101.5t-11 118t-21.5 113t-34.5 101t-51 68t-70 27t-70 -27t-51 -68t-34.5 -101t-22 -113t-11.5 -117.5 t-5 -102t-1 -77.5z" />
<glyph unicode="1" horiz-adv-x="724" d="M59 0v94q102 0 140.5 28.5t38.5 119.5v888h-156v95q77 19 162.5 55.5t146 62t98.5 25.5q3 0 9.5 -1t9.5 -1v-1124q0 -87 39 -117.5t137 -30.5v-94h-625z" />
<glyph unicode="2" horiz-adv-x="1114" d="M59 0l45 143q94 77 167.5 143.5t160 162t143.5 185t95.5 199t38.5 216.5q0 98 -56.5 172.5t-140.5 74.5q-94 0 -150.5 -67t-56.5 -150q0 -62 34.5 -113t100.5 -73q-22 -43 -64.5 -63.5t-90.5 -20.5q-49 0 -87.5 21.5t-60 55.5t-32.5 70.5t-11 71.5q0 104 59.5 185.5 t156.5 124t212 42.5q197 0 332 -111.5t135 -283.5q0 -96 -38 -194t-93.5 -177t-139.5 -163t-155 -142t-162 -125h344q90 0 152 154h135l-92 -338h-881z" />
<glyph unicode="3" horiz-adv-x="1077" d="M59 248q0 74 70.5 121t185.5 47q-3 -17 -10.5 -49t-10.5 -49.5t-3 -34.5q0 -87 57.5 -146t132.5 -59q53 0 94.5 24t65.5 65.5t36.5 92.5t12.5 109q0 56 -8.5 104.5t-28 92t-56 68.5t-87.5 25q-42 0 -83 -15.5t-70.5 -30.5t-43.5 -15q-18 0 -27 21t-12 73q16 38 69.5 55 t119.5 17q22 0 82 -6q56 30 86.5 105t30.5 157q0 71 -17.5 133t-60 106t-103.5 44q-119 0 -119 -97q0 -83 72 -190q-51 -25 -115 -25q-78 0 -133 37.5t-55 101.5q0 60 37 109.5t94.5 79t121.5 45.5t124 16q105 0 202 -42.5t160.5 -123t63.5 -178.5q0 -104 -50 -191 t-139 -124q104 -42 170 -136.5t66 -205.5q0 -95 -43 -173t-115.5 -127t-164 -75.5t-191.5 -26.5q-69 0 -138.5 16t-131 47.5t-100 85.5t-38.5 122z" />
<glyph unicode="4" horiz-adv-x="1087" d="M16 322l650 1001q4 5 10 13.5t23.5 22t33.5 13.5q33 0 53 -55v-885q60 0 86.5 16.5t55.5 83.5h121l-78 -210h-185v-119q0 -65 32 -88t110 -23v-92h-551v92q83 0 117 23t34 88v119h-512zM260 432h268v436z" />
<glyph unicode="5" horiz-adv-x="1095" d="M47 231q0 48 37 88t104 43q45 -4 69 -28t28 -56.5t8.5 -70t11.5 -69t37 -52t84 -20.5q53 0 97.5 26.5t74 69t50 97.5t29.5 110t9 108q0 54 -7.5 100.5t-25 90.5t-52 70t-83.5 26q-34 0 -78.5 -35.5t-44.5 -77.5q-20 -26 -61.5 -48.5t-75.5 -22.5q-49 0 -49 59l125 690 q184 -16 291 -16h63q163 0 205 51l166 2q-122 -125 -211 -182q-92 -56 -170 -56h-4q-44 -1 -78.5 -4.5t-38.5 -3.5h-8q-8 0 -19 1t-32 3t-45 4l-52 -311q71 45 162 45q101 0 198.5 -52t160.5 -142t63 -189q0 -141 -76 -259.5t-206 -186.5t-283 -68q-59 0 -123.5 18.5 t-120.5 51.5t-92.5 85t-36.5 111z" />
<glyph unicode="6" horiz-adv-x="1126" d="M98 555q0 111 22.5 223t73 221t123 193t182 136t240.5 52q41 0 83.5 -7.5t85 -23t69.5 -44.5t27 -68q0 -37 -34.5 -64.5t-88.5 -27.5q-37 0 -57 16t-28 38.5t-17 45.5t-34 39t-69 16q-55 0 -102.5 -33t-79.5 -84t-56.5 -117.5t-37 -128t-17.5 -120.5q86 72 219 72 q129 0 229.5 -65t151.5 -165.5t51 -214.5q0 -122 -52 -227t-157.5 -172.5t-244.5 -67.5q-101 0 -184 34t-137.5 90.5t-91.5 132t-53 156t-16 165.5zM387 477q0 -52 3.5 -99.5t15 -106.5t31 -101t55.5 -71t83 -29q46 0 80.5 26t53.5 64.5t30.5 92t15 98t3.5 93.5 q0 48 -4 92.5t-16 96t-31.5 89t-54.5 62.5t-81 25q-50 0 -87.5 -32t-57.5 -84t-29.5 -106.5t-9.5 -109.5z" />
<glyph unicode="7" horiz-adv-x="983" d="M51 1004l78 415h123q0 -29 8 -45q8 -8 21 -8h669l-491 -1260q-15 -30 -26.5 -48t-31.5 -39t-48 -31.5t-64 -10.5q-59 0 -91 35.5t-32 87.5q0 41 22 80l539 1002h-350q-153 0 -191 -178h-135z" />
<glyph unicode="8" horiz-adv-x="1204" d="M100 373q0 103 57.5 189t151.5 140q-83 44 -130.5 127.5t-47.5 186.5q0 106 70.5 191t175.5 129t219 44q84 0 166.5 -24t151 -67.5t111 -113t42.5 -153.5q0 -94 -48 -173t-130 -122q100 -50 158.5 -142.5t58.5 -205.5q0 -93 -45.5 -170.5t-119.5 -127t-165.5 -77 t-187.5 -27.5q-128 0 -239 49t-180 141t-69 206zM377 387q0 -82 21 -149.5t72 -114.5t124 -47q104 0 163.5 87t59.5 210q0 36 -8.5 66t-20 51.5t-34 41.5t-40 31.5t-49.5 25t-51 20t-55.5 18t-52.5 16.5q-66 -44 -97.5 -104.5t-31.5 -151.5zM401 1057q0 -48 15.5 -87 t38.5 -64t60 -46.5t70 -35.5t79 -30q8 -2 12 -3.5t10.5 -4t11.5 -4.5q50 32 75.5 98t25.5 146q0 110 -55 189t-146 79q-86 0 -141.5 -68.5t-55.5 -168.5z" />
<glyph unicode="9" horiz-adv-x="1153" d="M96 195q0 47 35 79.5t98 32.5q43 -2 67 -26.5t34 -58.5t21.5 -67.5t41.5 -57t82 -23.5q67 2 118.5 34.5t81 80t49.5 113t27 120.5t9 115q-82 -70 -189 -70q-129 0 -237.5 57.5t-170 155t-61.5 211.5q0 90 34 177.5t94 157t150.5 112t194.5 42.5q100 0 183 -37.5t137 -99 t91 -141.5t53 -162.5t16 -165.5q0 -86 -17 -176.5t-49.5 -180.5t-85 -168.5t-119.5 -139.5t-158 -96.5t-194 -35.5q-55 0 -112.5 14t-108 39.5t-83 69t-32.5 95.5zM391 924q0 -49 3 -93t14.5 -98.5t30 -93.5t52.5 -65.5t80 -26.5q55 0 94.5 33.5t59 88.5t27.5 110t8 114 q0 63 -7 123t-24.5 130.5t-57 113.5t-96.5 43q-46 0 -80.5 -26.5t-53.5 -65.5t-31 -93t-15.5 -99.5t-3.5 -94.5z" />
<glyph unicode=":" horiz-adv-x="493" d="M115 98q0 52 37 88.5t90 36.5t90 -36.5t37 -88.5t-37 -88.5t-90 -36.5t-90 36.5t-37 88.5zM115 743q0 52 37 88.5t90 36.5t90 -36.5t37 -88.5t-37 -88.5t-90 -36.5t-90 36.5t-37 88.5z" />
<glyph unicode=";" horiz-adv-x="471" d="M94 -285q79 36 123.5 90.5t44.5 102.5q0 10 -4 26q0 16 -11 32t-28 22q-61 0 -92 36t-31 91q0 114 125 114q72 -3 112 -67t40 -152q0 -84 -27.5 -155t-91.5 -127.5t-160 -81.5v69zM115 743q0 52 37 88.5t90 36.5t90 -36.5t37 -88.5t-37 -88.5t-90 -36.5t-90 36.5 t-37 88.5z" />
<glyph unicode="&#x3c;" horiz-adv-x="1005" d="M6 694v37l934 535v-129l-580 -363l580 -375v-264z" />
<glyph unicode="=" horiz-adv-x="1263" d="M117 459v127h1030v-127h-1030zM117 723v127h1030v-127h-1030z" />
<glyph unicode="&#x3e;" horiz-adv-x="1005" d="M63 135v129l582 363l-582 374v265l938 -561v-35z" />
<glyph unicode="?" horiz-adv-x="737" d="M16 1239q0 41 31 74t79 51t96.5 27.5t90.5 9.5q161 0 273 -109.5t112 -257.5q0 -54 -20.5 -110t-56 -102t-91 -75.5t-118.5 -29.5q-42 0 -86 18v-350q-15 1 -39 3.5t-35 2.5q-32 0 -76 -8v512h107q35 -61 73 -61q35 0 57.5 59t22.5 158q0 41 -6 81t-19.5 79t-39.5 63 t-62 24q-35 0 -58.5 -14.5t-35 -35t-21.5 -40.5t-25.5 -34.5t-37.5 -14.5q-49 0 -82 23t-33 57zM113 104q0 58 41 99t100 41t100 -41t41 -99q0 -57 -41 -96t-100 -39t-100 39t-41 96z" />
<glyph unicode="@" horiz-adv-x="1531" d="M63 649q0 217 104 388t287.5 265.5t413.5 94.5q171 0 307 -66.5t213.5 -190.5t77.5 -284q0 -97 -27 -196.5t-78.5 -186.5t-137.5 -142t-191 -55q-67 0 -106.5 42.5t-51.5 107.5q-59 -73 -118.5 -114.5t-134.5 -41.5q-79 0 -137.5 42.5t-85.5 101.5t-27 123q0 63 21 136.5 t62 145.5t95 130.5t126.5 95t149.5 36.5q94 0 158 -77l2 55q97 3 211 16l-145 -624q0 -70 12 -70q59 0 110.5 56t82 135t48 153t17.5 121q0 127 -63.5 230t-167 158.5t-222.5 55.5q-181 0 -329.5 -85.5t-233 -235.5t-84.5 -334q0 -148 72.5 -276t194.5 -203.5t262 -75.5 q120 0 221.5 48.5t222.5 143.5l154 -30q-304 -271 -631 -271q-144 0 -268 56t-207.5 150t-131 216.5t-47.5 255.5zM598 500q0 -50 13 -89t38 -40q36 2 66 22t49 45t37.5 68t27 73t22 79.5t19.5 68.5l45 150q-17 110 -61 110q-59 0 -109.5 -54.5t-81 -133.5t-48 -159 t-17.5 -140z" />
<glyph unicode="A" d="M31 0v102q93 2 139.5 26t77.5 95l512 1174h147l537 -1174q28 -63 70.5 -91.5t115.5 -29.5v-102h-663v100q70 0 108.5 22t38.5 58q0 17 -4 27l-94 246h-479l-97 -236q-16 -37 -16 -53q0 -27 22.5 -41.5t48.5 -17.5t68 -3h37v-102h-569zM592 578h360l-180 421z" />
<glyph unicode="B" horiz-adv-x="1282" d="M35 0v102q37 1 52.5 2t42 4t37 8t25.5 15t20.5 24.5t10 35.5t4.5 49v886q0 28 -4.5 49t-10 35.5t-20.5 24.5t-25.5 15t-37 8t-42 4t-52.5 2v102h713q81 0 153.5 -19.5t129.5 -57t90.5 -98t33.5 -136.5q0 -236 -266 -312q149 -32 245.5 -124.5t96.5 -237.5 q0 -115 -62 -202.5t-165.5 -133t-231.5 -45.5h-737zM537 240q0 -78 37.5 -103.5t111.5 -25.5q201 0 201 297q0 44 -6.5 80t-16.5 62.5t-29 47t-35 33.5t-44.5 22.5t-48.5 14t-54.5 7t-56 3t-59.5 0.5v-438zM537 782q39 0 65 1t59 6.5t54.5 15t44 27t35.5 42.5t21.5 62.5 t8.5 85.5q0 118 -39.5 179t-134.5 61h-114v-480z" />
<glyph unicode="C" horiz-adv-x="1486" d="M57 666q0 149 54.5 283t150 233.5t235.5 158t302 58.5q116 0 211.5 -31.5t193.5 -97.5q21 56 31 94h123l35 -518h-152q-23 101 -56.5 177.5t-84 139t-124.5 95t-169 32.5q-85 0 -155 -36t-116 -95t-78 -137t-45.5 -159t-13.5 -165q0 -92 15.5 -177t50.5 -162t86.5 -133.5 t128 -90t170.5 -33.5q149 0 276 90.5t193 243.5l141 -74q-90 -190 -271 -294.5t-394 -104.5q-214 0 -383 91.5t-262 251.5t-93 360z" />
<glyph unicode="D" horiz-adv-x="1572" d="M35 0v102q37 1 53 2t42.5 4t37.5 8t26.5 15t21.5 24.5t10.5 35.5t4.5 49v886q0 28 -4.5 49t-10.5 35.5t-21.5 24.5t-26.5 15t-37.5 8t-42.5 4t-53 2v102h592q102 0 188.5 -7t179.5 -27t166 -52t140.5 -85.5t112 -125t71 -172.5t26.5 -225q0 -201 -92 -353.5 t-259.5 -235.5t-385.5 -83h-739zM541 307q0 -68 7.5 -106t31.5 -59.5t57 -27t96 -5.5q93 0 166.5 31t121.5 83t79.5 125.5t45 154t13.5 173.5q0 588 -522 588q-26 0 -96 -4v-953z" />
<glyph unicode="E" horiz-adv-x="1318" d="M35 0v102q37 1 53 2t42.5 4t37.5 8t26.5 15t21.5 24.5t10.5 35.5t4.5 49v886q0 28 -4.5 49t-10.5 35.5t-21.5 24.5t-26.5 15t-37.5 8t-42.5 4t-53 2v102h1093l46 -365h-152q-27 127 -80 193t-154 66h-247v-482h77q74 0 110 44.5t42 140.5h152v-490h-152q-5 35 -7 46.5 t-7.5 38.5t-9.5 35t-12.5 25.5t-18 23t-23.5 14t-32.5 10.5t-41.5 2h-77v-406q0 -89 41 -122.5t125 -33.5q47 0 74 1t65.5 5.5t63.5 14.5t54 26.5t52 43t43 63.5q2 3 11 19.5l12 22t10.5 21t11 23.5t9 22.5t8 26t5.5 26t4 28.5h148l-37 -449h-1206z" />
<glyph unicode="F" horiz-adv-x="1191" d="M35 0v102q37 1 52.5 2t42 4t37 8t25.5 15t20.5 24.5t10 35.5t4.5 49v886q0 28 -4.5 49t-10 35.5t-20.5 24.5t-25.5 15t-37 8t-42 4t-52.5 2v102h1083l47 -362h-147q-17 62 -34.5 103.5t-44 79.5t-65.5 56.5t-92 18.5h-252v-486h109q115 0 115 185h157v-492h-157 q0 100 -28.5 149.5t-98.5 49.5h-97v-428q0 -39 8.5 -64.5t22.5 -40t41 -21.5t53.5 -9t70.5 -3h9v-102h-700z" />
<glyph unicode="G" horiz-adv-x="1585" d="M57 641q0 152 54.5 289.5t151 241.5t239.5 165.5t311 61.5q106 0 211 -31t190 -90q25 71 29 86h137v-514h-139q-28 187 -137 311q-119 135 -285 135q-81 0 -147 -26.5t-110 -74.5t-75.5 -108t-48.5 -134t-24.5 -145t-7.5 -149q0 -81 13 -159.5t43.5 -155t75 -134 t112.5 -93t151 -35.5q47 0 111 16.5t117.5 51.5t53.5 77v183q0 64 -34 84t-101 20h-65v102h692l-16 -100q-168 0 -168 -106v-316q-78 -2 -143.5 -16t-113 -32.5t-95.5 -37t-114 -31t-145 -12.5q-206 0 -371.5 88.5t-258.5 243.5t-93 344z" />
<glyph unicode="H" horiz-adv-x="1671" d="M35 0v102q37 1 53 2t42.5 4t37.5 8t26.5 15t21.5 24.5t10.5 35.5t4.5 49v886q0 28 -4.5 49t-10.5 35.5t-21.5 24.5t-26.5 15t-37.5 8t-42.5 4t-53 2v102h710v-102q-116 -3 -147 -14q-45 -16 -54 -75q-3 -20 -3 -49v-342h577v342q0 32 -4.5 54t-17 37t-26 24t-39.5 14 t-48 6.5t-61 2.5v102h714v-102h-1h-1h-1h-1h-1h-2q-111 -3 -141 -15q-40 -17 -48 -76l-2 -47v-886q0 -40 8.5 -66t21.5 -40.5t37.5 -21t48.5 -8.5t63 -2h6.5h6h6.5v-102h-714v102q48 1 72.5 3.5t53 10t41 21.5t21 39.5t8.5 63.5v417h-577v-417q0 -39 8.5 -64.5t22.5 -40 t40.5 -21.5t53 -9t70.5 -3h5h4v-102h-710z" />
<glyph unicode="I" horiz-adv-x="763" d="M35 0v102q28 1 40 1.5t34.5 2t31.5 4.5t25 7.5t22 11.5t15.5 17t12.5 23.5t6 31t3 39.5v886q0 22 -3 39.5t-6 31t-12.5 23.5t-15.5 17t-22 11.5t-25 7.5t-31.5 4.5t-34.5 2t-40 1.5v102h694v-102q-112 -3 -139 -12q-40 -14 -49 -66q-4 -23 -4 -60v-886q0 -48 8.5 -76 t39.5 -41.5t51.5 -16t81.5 -5.5q7 -1 11 -1v-100h-694z" />
<glyph unicode="J" horiz-adv-x="706" d="M-416 -322q0 50 48.5 87.5t115.5 37.5q63 0 106.5 -35t43.5 -81q0 -13 -3.5 -34.5t-3.5 -29.5q0 -39 60 -39q233 0 233 330v1210q0 22 -3 39.5t-6.5 30.5t-13.5 23.5t-16.5 17t-23 12l-25.5 8.5t-32.5 5t-35 3t-40.5 3v100h702v-102q-112 -4 -140 -15q-41 -16 -49 -72 q-3 -21 -3 -53v-1075q0 -97 -18 -180.5t-58.5 -156.5t-101.5 -124t-152.5 -80.5t-206.5 -29.5q-44 0 -90.5 5.5t-99 20t-93.5 36t-67.5 57.5t-26.5 81z" />
<glyph unicode="K" horiz-adv-x="1581" d="M35 0v102q37 1 53 2t42.5 4t37.5 8t26.5 15t21.5 24.5t10.5 35.5t4.5 49v886q0 28 -4.5 49t-10.5 35.5t-21.5 24.5t-26.5 15t-37.5 8t-42.5 4t-53 2v102h710v-102q-108 -1 -156 -33t-48 -96v-9v-387l432 443q16 22 16 37q0 44 -141 47v100h631v-100q-94 0 -162 -25.5 t-127 -81.5l-342 -319l502 -650q39 -47 94 -67.5t135 -20.5v-102h-696v102h55q82 0 82 41q0 20 -16 41l-373 498l-90 -102v-340q0 -28 5 -49t11 -35.5t22.5 -24.5t28 -15t39 -8t44 -4t54.5 -2v-102h-710z" />
<glyph unicode="L" horiz-adv-x="1306" d="M35 0v102q37 1 53 2t42.5 4t37.5 8t26.5 15t21.5 24.5t10.5 35.5t4.5 49v886q0 28 -4.5 49t-10.5 35.5t-21.5 24.5t-26.5 15t-37.5 8t-42.5 4t-53 2v102h706v-102q-112 -3 -140 -12q-39 -14 -48 -65q-4 -23 -4 -61v-888q6 -77 43 -104.5t115 -27.5q47 0 74 1t65.5 5.5 t63.5 14.5t54 26.5t52 43t43 63.5q2 3 11 19.5l12 22t10.5 21t11 23.5t9 22.5t8 26t5.5 26t4 28.5h148l-37 -449h-1206z" />
<glyph unicode="M" horiz-adv-x="1925" d="M37 0v102q106 3 151 47t45 140v809q0 56 -9 88.5t-35.5 49.5t-58 21.5t-93.5 6.5v102h510l411 -1004l422 1004h510v-102q-29 -1 -42.5 -1.5t-36 -2t-31.5 -3t-24.5 -5.5t-21 -9t-15 -12.5t-12.5 -17t-7 -22.5t-5 -29t-1 -36v-886q0 -32 5 -55.5t16 -38.5t23 -24t33 -13.5 t38.5 -5.5t45.5 -1h35v-102h-714v100q126 6 162 37.5t36 138.5v670l-416 -946h-124l-420 1028v-782q3 -72 51 -106.5t158 -37.5v-102h-586z" />
<glyph unicode="N" horiz-adv-x="1585" d="M35 0v102q106 3 148 47.5t42 147.5v831q0 28 -4.5 49t-10 35.5t-21 24.5t-25.5 15.5t-36.5 8.5t-41 4t-51.5 3v102h463l649 -950v670q0 54 -7.5 86.5t-26 48t-35 21.5t-51 12t-56.5 14v98h551v-102q-106 -1 -148.5 -42.5t-42.5 -135.5v-1102h-162l-768 1097v-735 q0 -38 1 -61.5t5 -52t12.5 -45.5t23 -35t36.5 -28t53.5 -17.5t73.5 -10.5v-100h-571z" />
<glyph unicode="O" horiz-adv-x="1677" d="M57 682q0 156 59 290t162 227.5t247.5 146.5t310.5 53q224 0 402.5 -90.5t279 -254.5t100.5 -372q0 -205 -101.5 -369t-280 -256t-400.5 -92q-164 0 -308 54t-247.5 148.5t-163.5 228t-60 286.5zM401 684q0 -95 13 -179.5t45 -165t80.5 -138t124.5 -92.5t172 -35 q97 0 173 35t124.5 93t80 138.5t44 165t12.5 178.5t-12.5 178.5t-44 165t-80 138.5t-124.5 93t-173 35q-80 0 -146.5 -24t-113 -68t-81.5 -100.5t-55 -126.5t-29.5 -141.5t-9.5 -149.5z" />
<glyph unicode="P" horiz-adv-x="1239" d="M35 0v102q37 1 52.5 2t42 4t37 8t25.5 15t20.5 24.5t10 35.5t4.5 49v886q0 28 -4.5 49t-10 35.5t-20.5 24.5t-25.5 15t-37 8t-42 4t-52.5 2v102h526q76 0 128 -1.5t125 -9.5t122.5 -22.5t103.5 -42.5t86.5 -66.5t54 -97t21.5 -133.5q0 -98 -54.5 -180t-154.5 -131 q-64 -32 -136 -41.5t-171 -9.5h-158v-391q0 -39 8.5 -64.5t22.5 -40t41.5 -21.5t55 -9t72.5 -3h9v-102h-702zM528 731h115q111 0 169 72.5t58 197.5q0 146 -62 207.5t-196 61.5q-30 0 -84 -4v-535z" />
<glyph unicode="Q" horiz-adv-x="1679" d="M57 676q0 158 61 293t167 229t253.5 147.5t315.5 53.5q221 0 397.5 -91t276.5 -255t100 -371q0 -231 -132 -414.5t-366 -265.5q-80 -19 -339 -129q109 -11 239.5 -46.5t228 -70.5t212.5 -63.5t204 -28.5q139 0 189 156q15 47 78 47q29 0 49 -14t20 -43q0 -86 -79 -165 t-186 -123t-198 -44q-87 0 -179 32.5t-173 79t-161 92.5t-170 78.5t-173 32.5q-36 0 -67 -13t-54.5 -31.5t-46 -36.5t-50.5 -31t-58 -13t-57 24t-27 60q0 26 30 49.5t82 36.5q164 58 287 123q-147 12 -272 68.5t-213.5 149t-138.5 220.5t-50 277zM406 674q0 -95 12.5 -179 t44 -164.5t79.5 -137.5t124.5 -92t173.5 -35q438 0 438 636q0 92 -13.5 175t-45 160.5t-79.5 133.5t-122.5 89.5t-167.5 33.5q-100 0 -178 -35t-127.5 -92.5t-81 -139.5t-44.5 -168t-13 -185z" />
<glyph unicode="R" horiz-adv-x="1484" d="M35 0v102q37 1 53 2t42.5 4t37.5 8t26.5 15t21.5 24.5t10.5 35.5t4.5 49v886q0 28 -4.5 49t-10.5 35.5t-21.5 24.5t-26.5 15t-37.5 8t-42.5 4t-53 2v102h629q78 0 154 -12.5t150 -41t130 -70.5t90.5 -107t34.5 -144q0 -265 -285 -327q54 -25 102 -70t83.5 -95.5 t69.5 -107t65.5 -107.5t64.5 -92.5t73.5 -66.5t86.5 -25v-100h-396q-1 80 -87.5 232.5t-193 273.5t-159.5 121h-106v-387q0 -39 8.5 -64.5t22.5 -40t40.5 -21.5t53 -9t70.5 -3h5h4v-102h-710zM541 731h129q117 0 171 69.5t54 203.5q0 260 -254 260h-100v-533z" />
<glyph unicode="S" horiz-adv-x="1114" d="M76 0v457h149q20 -149 114.5 -259t221.5 -110q100 0 172 57t72 166q0 65 -30.5 118t-80.5 88.5t-114 70.5t-130.5 63t-130.5 66t-114 79.5t-80.5 104t-30.5 139.5q0 106 59 188.5t156.5 126.5t214.5 44q169 0 293 -88q11 34 21 69h129v-399h-146q-3 77 -46 151.5 t-109 121t-131 46.5q-124 0 -175 -167q0 -52 24 -95t64.5 -75.5t93 -61.5t110.5 -56t116.5 -56.5t111 -66.5t93 -81.5t64.5 -106t24 -135.5q0 -185 -128.5 -309.5t-330.5 -124.5q-190 0 -354 135q-15 -42 -23 -100h-149z" />
<glyph unicode="T" horiz-adv-x="1476" d="M20 1004l48 362h1339l45 -362h-143q-20 64 -36.5 103t-44 78.5t-67.5 58t-94 18.5h-182v-1022q0 -39 9 -64.5t23 -40t41 -21.5t53.5 -9t69.5 -3h3h3h3v-102h-707v102q35 1 52.5 2t43.5 4t38 8.5t27.5 15.5t21.5 24t11 35t5 49v1022h-174q-54 0 -94 -18t-66.5 -56 t-43.5 -79t-34 -105h-150z" />
<glyph unicode="U" horiz-adv-x="1505" d="M16 1264v100h711v-100q-12 0 -36.5 -0.5t-36.5 -1t-32.5 -3.5t-31 -8t-24.5 -15.5t-21 -25t-12 -37t-5 -51.5v-635q0 -81 5 -136t22 -112t47.5 -90t84 -54t128.5 -21q58 0 102.5 12.5t74 30.5t50.5 51t31.5 61.5t16.5 74t7 77t1 82.5v24v625q0 48 -11.5 78t-40 45.5 t-60 21.5t-87.5 9v98h592v-98q-112 -7 -141 -19q-46 -17 -56 -77q-4 -24 -4 -58v-641q0 -93 -13 -166.5t-45.5 -138.5t-85.5 -108t-136.5 -68t-194.5 -25t-191 8t-151.5 28.5t-117.5 56t-80 90.5t-49 132.5t-15 182.5v659q0 20 -1.5 37t-6.5 30t-9 23t-14.5 18t-17 13 t-22.5 8.5t-24.5 5.5t-30 3.5t-32.5 2t-37 1.5z" />
<glyph unicode="V" horiz-adv-x="1607" d="M0 1264v102h662v-100q-170 -15 -170 -82q0 -9 4 -25l364 -819l324 819q12 27 12 45q0 33 -38.5 46.5t-125.5 13.5v102h567v-104h-16q-62 0 -115.5 -31.5t-85.5 -87.5l-512 -1166h-141l-545 1166q-25 59 -68 90t-116 31z" />
<glyph unicode="W" horiz-adv-x="2076" d="M2 1264v102h643v-102q-49 -1 -82 -8t-56.5 -27t-25.5 -53l232 -787l295 977h133l317 -883l201 647q14 51 14 68q0 38 -37.5 52t-136.5 14v102h569v-102q-91 -2 -127 -20.5t-61 -88.5l-391 -1178h-133l-344 965l-283 -965h-145l-402 1172q-34 115 -180 115z" />
<glyph unicode="X" horiz-adv-x="1570" d="M6 0v102h12q187 0 271 105l375 467l-363 487q-38 59 -90 80t-145 23v102h673l-2 -102q-63 0 -88.5 -7t-25.5 -26q0 -18 18 -45l193 -314l217 314q14 22 14 39q0 23 -36 31t-120 8v102h598v-100q-108 -7 -169.5 -26.5t-104.5 -78.5l-293 -389l383 -565q37 -56 94 -79 t144 -28v-100h-693v102q78 0 109 7.5t31 29.5q0 14 -17 45l-246 389l-276 -391q-18 -21 -18 -35q0 -42 159 -45v-102h-604z" />
<glyph unicode="Y" horiz-adv-x="1476" d="M-2 1264v102h664v-102q-70 0 -97.5 -8t-27.5 -29q0 -20 12 -39l250 -404l254 404q14 22 14 39q0 26 -37 31.5t-145 5.5v102h585v-102q-93 -3 -149 -28t-96 -89l-334 -541v-366q0 -38 9.5 -64t23.5 -40.5t43 -22t52.5 -9t67.5 -2.5v-102h-706v102q40 1 57.5 2t46 4t39.5 8 t27.5 15t22.5 24.5t11 35.5t5 49v364l-379 561q-37 54 -85 75.5t-128 23.5z" />
<glyph unicode="Z" horiz-adv-x="1327" d="M16 0v57l850 1194h-374q-103 0 -164 -65.5t-92 -188.5h-154l47 369h1126l-4 -53l-839 -1198h436q64 0 110.5 18.5t79 57t54 85.5t41.5 117h153l-35 -393h-1235z" />
<glyph unicode="[" horiz-adv-x="524" d="M117 -522v1929h383v-107h-150v-1716h150v-106h-383z" />
<glyph unicode="\" horiz-adv-x="856" d="M-4 1407h188l693 -1929h-187z" />
<glyph unicode="]" horiz-adv-x="550" d="M20 -416h177v1716h-177v107h414v-1929h-414v106z" />
<glyph unicode="^" horiz-adv-x="1280" d="M6 582l617 852h63l586 -852h-180l-371 573l-389 -573h-326z" />
<glyph unicode="_" horiz-adv-x="999" d="M-18 -182h1030v-101h-1030v101z" />
<glyph unicode="`" horiz-adv-x="579" d="M35 1221q0 24 51 24q17 0 69.5 -9t84.5 -9q74 0 133 20l127 -250q-13 -32 -62 -32q-31 0 -61 12l-311 207q-31 16 -31 37z" />
<glyph unicode="a" horiz-adv-x="1038" d="M74 201q0 68 23 119t58.5 79t88.5 50.5t101 33.5t109.5 27.5t100.5 32.5v53q0 46 -3 74.5t-12.5 57.5t-30.5 42.5t-54 13.5q-49 0 -77.5 -20t-40 -49t-20.5 -58t-30 -49t-58 -20q-50 0 -95.5 24t-45.5 62q0 52 39 94.5t98.5 66.5t120.5 37t113 13q82 0 144.5 -13.5 t113 -43.5t77.5 -84.5t27 -131.5v-501q63 47 68 102h127q-72 -236 -248 -236q-73 0 -122 31.5t-64 87.5q-55 -54 -124 -85t-139 -31q-111 0 -178 62t-67 159zM338 254q0 -123 78 -123q33 0 71.5 21.5t67.5 50.5v237q-15 -7 -42.5 -17t-47.5 -17.5t-44.5 -21.5t-40 -30 t-28 -42t-14.5 -58z" />
<glyph unicode="b" horiz-adv-x="1146" d="M-18 1262v100q221 27 393 61v-624q44 44 107 66t130 22q216 0 337.5 -128.5t121.5 -324.5q0 -195 -132 -326t-347 -131q-143 0 -285 91q-27 -34 -39 -68h-159v1124q0 66 -29 101.5t-98 36.5zM375 231q79 -135 205 -135q54 0 95 29.5t62.5 78.5t32 102.5t10.5 111.5 q0 340 -190 340q-73 0 -130 -31t-85 -96v-400z" />
<glyph unicode="c" horiz-adv-x="966" d="M74 399q0 129 54.5 235t164 172t256.5 66q45 0 101 -11t111 -32t91.5 -56.5t36.5 -78.5q0 -40 -37.5 -67t-97.5 -27q-48 0 -75.5 13.5t-38.5 34t-19.5 43t-29 43.5t-56.5 32q-46 -1 -80 -31.5t-52 -79t-26 -99t-8 -103.5q0 -48 7 -95.5t23 -95.5t39.5 -84.5t61 -59 t82.5 -22.5q72 0 120.5 38.5t88.5 119.5l149 -29q-77 -125 -161.5 -183t-198.5 -58q-243 0 -374.5 109.5t-131.5 305.5z" />
<glyph unicode="d" horiz-adv-x="1204" d="M76 434q0 115 55.5 220.5t154 172t212.5 66.5q140 0 268 -105v334q0 68 -29.5 103.5t-103.5 36.5v98q228 26 401 63v-1181q0 -68 30 -103.5t105 -36.5v-100q-68 0 -191.5 -14.5t-156.5 -16.5l-2 88q-126 -79 -260 -79q-144 0 -255 61t-169.5 164t-58.5 229zM369 420 q0 -58 10.5 -112t33 -102.5t62 -78t92.5 -29.5q63 0 114.5 37t84.5 101v395q-28 65 -83.5 96t-123.5 31q-190 0 -190 -338z" />
<glyph unicode="e" horiz-adv-x="993" d="M74 426q0 124 53 227t158.5 167.5t244.5 64.5q125 0 217.5 -62t136.5 -160t44 -217h-572q9 -356 213 -356q75 0 130.5 38.5t113.5 115.5l131 -45q-154 -222 -405 -222q-140 0 -247 61t-162.5 162.5t-55.5 225.5zM360 553h304v16q0 90 -34 146.5t-108 56.5q-77 0 -116 -63 t-46 -156z" />
<glyph unicode="f" horiz-adv-x="675" d="M55 768v98h133q0 46 1 81t5.5 80.5t12 79.5t21.5 73.5t33.5 67.5t48.5 55.5t65.5 44.5t85.5 27.5t108 10.5q56 0 111 -17.5t95 -55.5t40 -88q0 -40 -38 -70.5t-93 -30.5q-35 0 -53 16t-23 39t-8.5 46t-16.5 39t-40 16q-86 0 -86 -190v-224h180v-98h-180v-526 q0 -87 35.5 -113t138.5 -31v-98h-572v102q75 1 102 35.5t27 104.5v526h-133z" />
<glyph unicode="g" horiz-adv-x="1105" d="M12 -256q0 92 57.5 129t168.5 37q18 0 52 -7t54 -18q-47 -26 -69.5 -55t-22.5 -86q0 -39 16 -67.5t39 -43t59 -22.5t63.5 -10t66.5 -2q120 0 191 41.5t71 117.5q0 52 -39 84.5t-101 47t-137 23.5t-150.5 19t-137.5 27.5t-101 56t-39 97.5q0 41 52.5 89t160.5 91 q-80 39 -125 105t-45 149q0 149 107 238t278 89q72 0 140.5 -23.5t111.5 -70.5q38 39 87.5 65t97.5 29q58 0 106.5 -25.5t48.5 -68.5v-16q0 -98 -123 -98q-23 0 -55 37.5t-57 37.5q-10 0 -21 -22q43 -78 43 -164q0 -130 -96.5 -214.5t-245.5 -92.5q-3 0 -25.5 -1t-40 -1.5 t-44 -4t-45 -9t-34 -15.5t-20.5 -24q0 -24 29.5 -40t78 -22.5t110 -15.5t126 -18t126.5 -30.5t110.5 -51.5t78.5 -83.5t31 -124.5q0 -75 -29 -133.5t-76 -95t-115 -59.5t-138.5 -32t-153.5 -9q-60 0 -121.5 7.5t-126.5 27t-114.5 49t-81 76.5t-31.5 106zM373 541 q0 -39 4.5 -72.5t15 -66t31.5 -51.5t51 -19q34 0 58.5 20.5t37 55t18 70.5t5.5 77q0 227 -111 227q-110 0 -110 -241z" />
<glyph unicode="h" horiz-adv-x="1171" d="M37 0v100q73 1 101 36t28 104v884q0 135 -129 138v100q216 26 393 59v-622q58 42 138 68t157 26q59 0 108.5 -16t90 -50t63.5 -93.5t23 -139.5v-354q0 -69 27 -104t100 -36v-100h-535v100q73 1 100 36t27 104v350q0 82 -32.5 120t-84.5 38q-45 0 -95 -23t-87 -57v-428 q0 -70 30 -104.5t113 -35.5v-100h-536z" />
<glyph unicode="i" horiz-adv-x="614" d="M59 0v100q74 1 99.5 35t25.5 105v340q0 69 -27 103.5t-98 37.5v98q48 5 102 13.5t83.5 14t102.5 20t95 18.5v-645q0 -72 28 -105.5t108 -34.5v-100h-519zM152 1186q0 68 48 115t117 47t117.5 -47.5t48.5 -114.5t-48.5 -114.5t-117.5 -47.5t-117 47t-48 115z" />
<glyph unicode="j" horiz-adv-x="555" d="M-174 -389q0 37 35.5 68.5t85.5 31.5q23 0 43.5 -17.5t33.5 -38.5t35 -38.5t47 -17.5q39 0 51.5 48t12.5 124v39v772q0 68 -28.5 104t-96.5 39v96q136 16 379 64v-1026q0 -79 -23.5 -147t-67.5 -120.5t-114.5 -83t-157.5 -30.5q-44 0 -96.5 14t-95.5 46t-43 73zM129 1186 q0 67 48.5 114.5t117.5 47.5t117.5 -47.5t48.5 -114.5t-48.5 -114.5t-117.5 -47.5t-117.5 47.5t-48.5 114.5z" />
<glyph unicode="k" horiz-adv-x="1116" d="M37 0v100q73 1 101 36t28 104v884q0 135 -129 138v100q230 27 391 59v-882l190 180q13 13 13 20q0 25 -80 25v100h448v-98q-150 -20 -217 -80l-166 -145l293 -342q66 -78 185 -101v-98h-486v100h17q49 0 49 15q0 4 -4 12l-234 293l-8 -23v-157q0 -71 30 -105t115 -35 v-100h-536z" />
<glyph unicode="l" horiz-adv-x="591" d="M37 0v100q71 1 98 36.5t27 103.5v884q0 135 -125 138v100q212 26 387 59v-1181q0 -70 27 -104.5t106 -35.5v-100h-520z" />
<glyph unicode="m" horiz-adv-x="1765" d="M55 0v100q73 1 100 35t27 103v335q0 68 -28 102.5t-99 37.5v96q204 23 351 59q38 -60 43 -102q127 108 278 108q77 0 145 -30.5t99 -87.5q153 118 303 118q178 0 250.5 -75t72.5 -224v-337q0 -69 28 -103t106 -35v-100h-545v100q77 1 104 35t27 103v311q0 35 -2 59.5 t-9.5 50.5t-20.5 41t-36.5 25t-56.5 10q-39 0 -81 -23t-77 -61v-413q0 -69 26 -103t101 -35v-100h-538v100q76 1 100.5 34t24.5 104v327q0 83 -27.5 126.5t-91.5 43.5q-46 0 -84 -22t-82 -64v-411q0 -69 27 -103t104 -35v-100h-539z" />
<glyph unicode="n" horiz-adv-x="1185" d="M55 0v100q73 1 100 35t27 103v335q0 67 -28.5 102t-98.5 38v96q195 22 346 59q38 -60 43 -102q121 108 275 108q307 0 307 -284v-352q0 -71 24.5 -104t100.5 -34v-100h-533v100q73 1 99 35t26 103v327q0 170 -125 170q-80 0 -159 -86v-411q0 -69 27 -103t104 -35v-100 h-535z" />
<glyph unicode="o" horiz-adv-x="1128" d="M74 420q0 209 127.5 337t351.5 128q222 0 345.5 -124t123.5 -333q0 -200 -131.5 -325.5t-345.5 -125.5q-216 0 -343.5 118.5t-127.5 324.5zM358 412q0 -50 4.5 -94.5t17.5 -90.5t33.5 -79t54 -53.5t77.5 -20.5q47 0 82.5 22t56 56t33.5 82t17.5 93t4.5 97q0 56 -3 100 t-14.5 96t-31.5 86t-56.5 57t-86.5 23q-49 0 -85 -24t-55.5 -60t-31 -89.5t-14.5 -98.5t-3 -102z" />
<glyph unicode="p" horiz-adv-x="1171" d="M29 -420q74 1 101.5 35t27.5 104v848q0 67 -29.5 103t-99.5 39v98q224 29 348 61q33 -52 39 -94q98 98 241 98q101 0 185 -36.5t138.5 -98t85 -142t30.5 -169.5q0 -121 -51.5 -225t-156 -171t-241.5 -67q-126 0 -223 72v-316q0 -46 9 -73t33.5 -41.5t53 -20t82.5 -8.5 v-98h-573v102zM424 174q83 -86 174 -92q58 0 100 32t64 86.5t31.5 112t9.5 121.5q0 57 -8.5 109t-27 101.5t-55.5 79.5t-87 30q-114 0 -201 -150v-430z" />
<glyph unicode="q" horiz-adv-x="1105" d="M74 397q0 91 33 175.5t91.5 150t147.5 104.5t193 39q65 0 128 -22t109 -62q93 25 221 90v-1155q0 -71 27 -104.5t106 -34.5v-100h-575v96q104 6 142 32.5t38 110.5v324q-107 -80 -221 -80q-135 0 -237 61t-152.5 159t-50.5 216zM365 391q0 -56 10.5 -108t31.5 -98 t59.5 -73.5t88.5 -27.5q47 0 87 20t93 60v477q-82 100 -178 100q-54 0 -93.5 -34t-60 -89t-29.5 -111.5t-9 -115.5z" />
<glyph unicode="r" horiz-adv-x="817" d="M41 0v98q73 1 100 35t27 103v333q0 67 -28.5 102t-98.5 38v96q197 22 342 59q40 -60 43 -119q92 111 201 111q69 0 119.5 -34t50.5 -87q0 -36 -34 -67t-89 -31q-28 0 -64 37t-67 37q-30 0 -59.5 -24.5t-43.5 -59.5v-391q0 -80 25.5 -103t114.5 -37v-96h-539z" />
<glyph unicode="s" horiz-adv-x="829" d="M96 0v317h135q13 -101 64 -161q53 -66 135 -66q34 0 59 28.5t25 74.5q0 39 -23 71t-60 54.5t-81.5 44t-89 45.5t-81.5 52.5t-60 71t-23 95.5q0 111 74.5 179t202.5 68q99 0 188 -79l14 57h125v-309h-131q-6 71 -65 143q-62 76 -111 76q-51 0 -65 -92q1 -40 33.5 -73 t79.5 -53.5t101.5 -48t101 -56.5t77.5 -79t31 -114q0 -120 -82.5 -194.5t-220.5 -74.5q-104 0 -207 76l-17 -53h-129z" />
<glyph unicode="t" horiz-adv-x="716" d="M47 764v80q52 8 91.5 39.5t61.5 76.5t33 95.5t11 103.5h159v-293h218v-102h-218v-492q0 -139 52 -139q11 0 21.5 2t21.5 8t18 10t18.5 15t16.5 16t18.5 19.5t18.5 19.5l106 -51q-126 -180 -301 -180q-258 0 -258 280v492h-88z" />
<glyph unicode="u" horiz-adv-x="1126" d="M14 750v100h387v-559q0 -172 125 -172q45 0 80 21.5t80 64.5v405q0 69 -28 104t-99 36v100h389v-610q0 -68 28.5 -103.5t102.5 -36.5v-100q-173 0 -346 -12q-21 44 -33 100q-124 -111 -270 -111q-293 0 -293 287v346q0 70 -26 104.5t-97 35.5z" />
<glyph unicode="v" horiz-adv-x="1093" d="M18 752v98h480v-96q-15 -2 -33.5 -6.5t-38.5 -17.5t-20 -32q0 -6 4 -18l184 -401l188 413v6q0 23 -37 38.5t-59 15.5v98h387v-98q-94 0 -115 -41l-356 -711h-123l-350 709q-12 26 -39 34.5t-72 8.5z" />
<glyph unicode="w" horiz-adv-x="1515" d="M14 756v94h465v-98q-19 0 -52.5 -15t-33.5 -41q0 -4 4 -16l144 -361l184 531h137l195 -539l143 369q2 4 2 12q0 19 -21.5 34t-41.5 20.5t-29 5.5v98h385v-96q-53 -5 -81 -18.5t-42 -47.5l-305 -688h-137l-185 553l-200 -553h-123l-295 688q-3 8 -7 14t-7.5 11t-9 9.5 t-9 7.5t-11 6t-10.5 4.5t-13 4t-13.5 3.5t-16 4t-16.5 4z" />
<glyph unicode="x" horiz-adv-x="1167" d="M31 0v100q120 0 172 52l258 258l-250 286q-30 33 -62.5 44.5t-91.5 11.5v98h480v-98q-9 0 -22 1t-17 1q-17 0 -17 -6t8 -11l127 -182l146 182q6 9 6 13q0 6 -12 6q-4 0 -31.5 -2t-48.5 -2v98h428v-98q-60 0 -98 -8.5t-64 -34.5l-240 -242l267 -315q26 -32 61.5 -42 t102.5 -10v-100h-510v102q12 -2 36 -2q37 0 37 13q0 5 -6 14l-145 199l-166 -199q-10 -13 -10 -18q0 -9 75 -9v-100h-413z" />
<glyph unicode="y" horiz-adv-x="1089" d="M12 750v100h484v-100q-47 -2 -65.5 -6t-18.5 -17q0 -2 -1.5 -10.5t-2 -15t1.5 -13.5l184 -389l160 352q2 2 2 21q0 11 -1 30l-1 19q0 29 -60 29h-16v100h391v-100q-54 -5 -84.5 -18.5t-46.5 -47.5l-422 -889q-18 -38 -26.5 -54.5t-31 -57t-38 -62t-42.5 -53t-51 -48.5 t-55.5 -29.5t-64.5 -12.5q-65 0 -110.5 27t-45.5 75q0 33 24 69t68 36q13 0 33 -18.5t33 -18.5h8q13 2 25 7t24 16.5t22 22.5t23.5 33t23 39.5t25.5 50t27.5 57t32 68t35.5 74.5l-324 666q-19 37 -45 51.5t-74 16.5z" />
<glyph unicode="z" horiz-adv-x="968" d="M59 0v90l504 664h-223q-29 0 -50.5 -18.5t-32 -41.5t-25.5 -59.5t-27 -56.5h-127l39 276h762v-86l-492 -664h209q26 0 48.5 13t37.5 28.5t32 48t25 50.5t23 57q1 3 2 5.5t2 4.5h133l-20 -311h-820z" />
<glyph unicode="{" horiz-adv-x="692" d="M-6 602v70q111 6 149.5 52.5t38.5 131.5q0 29 -5 94t-5 99q5 70 15.5 125.5t27.5 97t36.5 72t49.5 51.5t59 34t71 19.5t80.5 9t92.5 2.5q33 0 76 4v-88q-64 -2 -110.5 -19t-73.5 -43t-42.5 -66t-20.5 -79t-5 -92q0 -30 2 -92.5t2 -91.5q0 -42 -2 -68.5t-9.5 -59.5 t-22.5 -55t-42.5 -42t-66.5 -33q47 -15 77 -42.5t43.5 -66.5t18 -74t4.5 -87q0 -31 -3 -100t-3 -105q0 -55 5 -97.5t21 -87t43 -73t74 -46.5t111 -18v-86h-70q-127 0 -208 22.5t-129.5 76t-67.5 131.5t-19 200q0 47 2 72q-3 183 -49 261.5t-145 86.5z" />
<glyph unicode="|" horiz-adv-x="458" d="M131 -342v1706h197v-1706h-197z" />
<glyph unicode="}" horiz-adv-x="702" d="M8 -162q132 0 190 41.5t62 161.5q0 23 -3 94.5t-3 114.5q0 322 154 387q-47 16 -78.5 45t-46 69.5t-20 79.5t-5.5 91q0 22 1 67t1 66q0 40 -0.5 64.5t-2.5 55.5t-5.5 49t-10 40.5t-16 35t-23.5 27t-32 22t-42 15t-53.5 10.5t-66.5 4v88q14 -2 55 -2q50 0 86.5 1t40.5 1 q38 0 68.5 -3t65.5 -12t62 -24.5t52.5 -42.5t42.5 -63.5t27 -90t10 -120.5q0 -38 -7 -116t-7 -115q0 -45 8 -78t28 -62.5t59 -47t97 -21.5v-68q-59 -4 -99 -25t-61 -56.5t-29.5 -76t-8.5 -92.5t11 -155.5t11 -145.5q0 -53 -7 -94t-24 -72t-37 -53t-56 -36.5t-69.5 -23.5 t-89.5 -13.5t-104.5 -5.5t-124.5 -1v86z" />
<glyph unicode="~" horiz-adv-x="1155" d="M57 606q176 199 359 199q64 0 186 -33q119 -35 186 -35q94 0 193 92l119 -26q-174 -197 -367 -197q-19 0 -37.5 1.5t-41.5 6.5t-34 7.5t-41 10.5t-36 9q-119 35 -191 35q-24 0 -43 -4t-40 -16.5t-29.5 -18.5t-35 -29t-32.5 -28z" />
<glyph unicode="&#xa1;" horiz-adv-x="483" d="M84 -227q0 100 40.5 322t45.5 341q39 -10 70 -10q30 0 69 10q3 -125 44.5 -347t41.5 -316q0 -35 -6.5 -78.5t-21.5 -95.5t-48 -86.5t-79 -34.5q-42 0 -72.5 23.5t-46 55.5t-24.5 77.5t-11 75.5t-2 63zM96 745q0 58 41.5 99t100.5 41t100 -41t41 -99q0 -57 -41 -96 t-100 -39t-100.5 39t-41.5 96z" />
<glyph unicode="&#xa2;" horiz-adv-x="925" d="M47 670q0 64 15 129t46.5 125.5t75.5 108.5t106 79.5t134 36.5v197h151v-197q61 -4 121.5 -23.5t109.5 -60t54 -92.5q0 -41 -38 -72t-95 -31q-46 6 -67 22.5t-22.5 37t-1 41t-13 37.5t-48.5 22v-674q133 19 191 162l145 -26q-29 -115 -125.5 -183t-210.5 -76v-213h-151 v216q-181 21 -279 138.5t-98 295.5zM342 721q0 -243 82 -334v637q-82 -53 -82 -303z" />
<glyph unicode="&#xa3;" horiz-adv-x="1230" d="M12 111q0 67 72 109t154 42q65 0 168 -31q2 36 8.5 111.5t10 133t3.5 108.5h-215v94h217q1 65 6 126.5t18.5 135.5t34.5 137t56.5 124t81 103.5t111.5 68.5t145 26q134 0 219.5 -62t85.5 -174q-2 -64 -10 -99.5t-20 -50.5t-36 -19t-50.5 -3.5t-73 -5.5t-93.5 -22l-22 32 q59 65 59 156q0 79 -22.5 116.5t-55.5 37.5q-44 0 -82.5 -51t-38.5 -107q-32 -183 -32 -469h233v-94h-248q-14 -238 -112 -391q116 -35 204 -35q236 0 244 211l119 -95q0 -115 -85 -212t-208 -97q-98 0 -189 35t-194 98q-56 -38 -157 -80.5t-179 -42.5q-58 0 -92.5 32.5 t-34.5 103.5zM221 119q0 -53 29 -53q18 0 45.5 21.5t46.5 42.5l18 22q-48 24 -86 24q-53 0 -53 -57z" />
<glyph unicode="&#xa4;" horiz-adv-x="1341" d="M41 1176l133 88l188 -183q143 97 308 97q78 0 146 -25t149 -74l202 187l136 -88l-203 -195q96 -148 96 -289q0 -123 -98 -276l200 -191l-133 -92l-200 187q-157 -97 -295 -97q-152 0 -299 94l-191 -182l-135 90l188 185q-48 81 -73 147.5t-25 142.5q0 123 96 285z M387 700q0 -124 84 -213.5t199 -89.5q113 0 195.5 89.5t82.5 213.5q0 125 -82 215.5t-196 90.5q-115 0 -199 -90.5t-84 -215.5z" />
<glyph unicode="&#xa5;" horiz-adv-x="1296" d="M0 1290v76h578v-78h-111h-5.5h-7t-7 -1t-7 -3.5t-5 -7t-3.5 -10.5q2 -29 27 -70l248 -500l213 432q38 66 38 111q0 30 -25.5 39.5t-72.5 9.5h-35v78h459v-76q-34 -3 -63 -16.5t-48 -28.5t-39 -42t-30 -45t-27 -50l-131 -248h248v-98h-315l-101 -170v-19h416v-102h-416 v-254q0 -36 0.5 -51.5t5 -37t14 -29.5t26.5 -14.5t44 -6.5h113v-78h-664v78h113q35 0 54.5 6.5t28.5 26t11 38t2 58.5v10v254h-420v102h416l-112 189h-304v98h236l-139 273q-14 28 -20 39t-19 32t-21.5 29t-23.5 21.5t-31 18.5t-38.5 10t-49.5 7z" />
<glyph unicode="&#xa6;" horiz-adv-x="415" d="M102 338h197v-680h-197v680zM102 684v680h197v-680h-197z" />
<glyph unicode="&#xa7;" horiz-adv-x="909" d="M55 592q0 137 142 291q-109 102 -109 219q0 88 53 157t136.5 104.5t179.5 35.5q69 0 147.5 -29.5t137.5 -84.5t59 -118q0 -35 -31.5 -65.5t-83.5 -34.5h-2q-46 3 -67.5 25t-26.5 51t-12 58t-37 49t-88 20q-44 0 -81.5 -32t-37.5 -85q0 -38 22 -74t58 -66t82 -63t94 -62.5 t94 -66t82 -74t58 -86t22 -100.5q0 -139 -117 -291q113 -113 113 -229q0 -94 -55 -173.5t-146 -124t-195 -44.5q-89 0 -175.5 36t-145.5 105.5t-59 153.5q0 36 31 62t85 26q65 0 86 -25t21 -67v-41q0 -24 5 -41t20.5 -34.5t50 -26.5t88.5 -9t95.5 43.5t41.5 108.5 q0 43 -29.5 82.5t-76.5 73t-104 68t-114.5 73.5t-104.5 81.5t-76.5 100.5t-29.5 123zM299 672q0 -40 19 -79t57.5 -76t69 -61.5t82 -60.5t67.5 -49q12 67 12 133q0 41 -18 80.5t-53.5 75.5t-65.5 61.5t-78 61t-67 51.5q-25 -77 -25 -137z" />
<glyph unicode="&#xa8;" horiz-adv-x="921" d="M100 1108q0 58 41.5 99.5t100.5 41.5q58 0 99.5 -41.5t41.5 -99.5t-41.5 -99.5t-99.5 -41.5q-59 0 -100.5 41.5t-41.5 99.5zM496 1108q0 58 41 99.5t100 41.5t100 -41.5t41 -99.5t-41 -99.5t-100 -41.5t-100 41.5t-41 99.5z" />
<glyph unicode="&#xa9;" horiz-adv-x="1574" d="M63 684q0 144 52 273t144.5 226t229.5 153.5t297 56.5q155 0 290 -56.5t229 -152t148 -226t54 -274.5q0 -145 -54 -275.5t-148 -226.5t-229 -152.5t-290 -56.5q-156 0 -291.5 56.5t-229.5 152.5t-148 226.5t-54 275.5zM203 684q0 -122 47 -234t125.5 -193t186 -129 t224.5 -48q157 0 292 81t214.5 220.5t79.5 302.5t-79.5 302t-214.5 219.5t-292 80.5q-117 0 -224.5 -48t-186 -128.5t-125.5 -192t-47 -233.5zM360 670q0 175 124 291t319 116q56 0 104.5 -15.5t75.5 -33.5q1 2 6 55h117v-272h-121q-20 87 -58 133.5t-104 46.5 q-68 0 -114 -47.5t-64 -113.5t-18 -144q0 -60 9.5 -111t31 -96t61 -70.5t94.5 -25.5q90 0 162 51t148 158l12 -141q-61 -74 -151 -117t-189 -43q-194 0 -319.5 105t-125.5 274z" />
<glyph unicode="&#xaa;" horiz-adv-x="800" d="M82 616v99h655v-99h-655zM86 930q0 143 336 229v70q0 74 -53 74q-70 0 -70 -23q0 -8 13.5 -33t13.5 -41q0 -30 -31 -46.5t-74 -16.5q-47 0 -82 19.5t-35 54.5q0 48 48.5 86.5t109 55.5t113.5 17q122 0 188 -39t66 -135v-309q3 0 6 43l108 -29q-45 -55 -87 -82.5 t-95 -27.5q-95 0 -119 84q-99 -84 -178 -84q-74 0 -126 38t-52 95zM297 948q0 -59 29 -59q20 0 48 24.5t48 49.5v118q-125 -53 -125 -133z" />
<glyph unicode="&#xab;" horiz-adv-x="921" d="M31 446q0 38 43 60l270 237q27 13 70.5 24t77.5 11h14q26 0 26 -30q0 -35 -36 -68l-172 -225l174 -228q45 -37 45 -65q0 -23 -26.5 -35t-70.5 -12q-16 0 -33 6t-28 12.5t-28.5 18.5t-24.5 16zM352 446q0 34 39 58l273 239q51 35 137 35h24q27 0 27 -30q0 -9 -4 -18.5 t-8 -15.5t-12.5 -17.5t-12.5 -16.5l-170 -225l170 -228q39 -45 39 -61q0 -5 -1.5 -9t-6 -7.5t-9 -6.5t-13 -6.5t-14 -6t-17.5 -6.5t-19 -7q-16 0 -34.5 5.5t-30 11.5t-31.5 17.5t-27 14.5z" />
<glyph unicode="&#xac;" horiz-adv-x="1124" d="M37 420v127h971v-547h-314v420h-657z" />
<glyph unicode="&#xad;" horiz-adv-x="745" d="M117 389v143h512v-143h-512z" />
<glyph unicode="&#xae;" horiz-adv-x="1570" d="M61 684q0 136 55.5 264.5t150 227t230.5 158t287 59.5q155 0 290 -56.5t228.5 -152t147 -225.5t53.5 -275t-53.5 -275.5t-147 -226.5t-228.5 -152.5t-290 -56.5q-156 0 -291.5 56.5t-229.5 152.5t-148 226.5t-54 275.5zM201 684q0 -122 47 -234t125.5 -193t186 -129 t224.5 -48q133 0 250.5 59t200.5 162h-236l-206 346h-66v-213q0 -36 11.5 -47.5t41.5 -11.5q5 0 21 1t26 1v-76h-430v76q38 0 54.5 2.5t27 15t10.5 39.5v500q0 36 -12 46.5t-45 10.5h-41v76h395q51 0 98 -5.5t95 -20.5t83 -38.5t57 -63.5t22 -91q0 -130 -142 -191l148 -239 q12 -22 31 -31.5t55 -9.5h10v-66q127 162 127 373q0 163 -79.5 302t-214.5 219.5t-292 80.5q-117 0 -224.5 -48t-186 -128.5t-125.5 -192t-47 -233.5zM727 719h59q54 0 81.5 29.5t27.5 99.5q0 62 -30.5 97.5t-78.5 35.5h-59v-262z" />
<glyph unicode="&#xaf;" horiz-adv-x="921" d="M117 1065v102h702v-102h-702z" />
<glyph unicode="&#xb0;" horiz-adv-x="636" d="M80 1114q6 182 234 191h5q110 0 170 -47.5t60 -137.5q0 -77 -70.5 -134.5t-165.5 -57.5q-97 0 -165 54.5t-68 131.5zM231 1116q0 -44 26.5 -75t59.5 -31q29 0 52.5 33t23.5 75t-25 72.5t-57 30.5q-33 0 -56.5 -30.5t-23.5 -74.5z" />
<glyph unicode="&#xb1;" horiz-adv-x="1112" d="M41 96v135h985v-135h-985zM41 655v136h414v385h153v-385h418v-136h-418v-374h-153v374h-414z" />
<glyph unicode="&#xb2;" horiz-adv-x="768" d="M49 545l19 100q41 31 57.5 43.5t56 45t59 50.5t53 51t51 57t41 58.5t35 65t20 67t8.5 72.5q0 51 -28.5 90t-66.5 39q-54 0 -81 -23t-27 -59t25 -73t65 -58q-14 -34 -48 -50.5t-73 -16.5q-68 0 -107.5 45t-39.5 94q0 99 89 159t205 60q129 0 222.5 -68.5t93.5 -175.5 q0 -55 -21 -109t-51.5 -95.5t-79.5 -87.5t-88 -76t-94 -68h148q26 0 49.5 26t36.5 62h131l-72 -225h-588z" />
<glyph unicode="&#xb3;" horiz-adv-x="739" d="M47 702q0 68 24 91.5t76 23.5q17 0 63 -3t75 -3q-47 -58 -47 -88q0 -45 30.5 -76t67.5 -31q51 0 76.5 44t25.5 112q0 58 -15 103.5t-50 48.5q-4 0 -50 -14.5t-75 -14.5q-61 0 -66 61v2q0 29 46.5 42.5t103.5 13.5q33 0 43 -2q23 10 34 47t11 78q0 61 -21.5 105t-62.5 44 q-57 0 -57 -41q0 -49 63 -112q-73 -25 -129 -25q-117 0 -117 94q0 51 43.5 88.5t100.5 53.5t114 16q67 0 132 -25t110 -75.5t45 -112.5q0 -116 -100 -172q127 -70 127 -197q0 -78 -53 -136t-128.5 -85t-158.5 -27q-62 0 -123.5 17t-109.5 57.5t-48 97.5z" />
<glyph unicode="&#xb4;" horiz-adv-x="593" d="M63 997q0 1 1.5 4t1.5 5l127 241q93 -22 143 -22q23 0 73 12t76 12q23 0 36.5 -9t13.5 -21q0 -21 -37 -39l-310 -207q-28 -8 -65 -8q-60 0 -60 32z" />
<glyph unicode="&#xb5;" horiz-adv-x="1130" d="M68 -262q0 39 18.5 136.5t37.5 252.5t19 334v389h271v-504q0 -120 35.5 -183t91.5 -63q89 0 170 131v619h272v-623q0 -105 31 -116q21 1 102 28v-76l-231 -100q-99 0 -133 146q-71 -67 -150 -110.5t-149 -43.5q-103 0 -166 100q16 -103 67 -305q0 -58 -34.5 -99.5 t-110.5 -41.5q-79 0 -110 35t-31 94z" />
<glyph unicode="&#xb6;" horiz-adv-x="1146" d="M25 1036q10 78 35.5 136t69.5 93t86 56.5t109.5 30.5t114.5 11.5t125 2.5h578l-107 -86q-23 0 -39 -8.5t-24 -19t-12 -31.5t-4.5 -35t-0.5 -41v-1137q-2 -6 -2 -20q0 -41 25 -62.5t61 -21.5l70 -90h-358v1458h-86v-1458h-404l117 88q55 0 71 22t19 88v682q-17 0 -50 -1 t-48 -1q-43 0 -74.5 2.5t-68 11t-63 23t-52.5 40t-43.5 61.5t-29.5 88t-15 118zM285 1012q0 -94 39.5 -157.5t113.5 -63.5h31v485q-74 -2 -111.5 -23.5t-55 -77t-17.5 -163.5z" />
<glyph unicode="&#xb7;" horiz-adv-x="471" d="M74 498q0 61 44 104t107 43t107.5 -43t44.5 -104t-44.5 -104.5t-107.5 -43.5t-107 43t-44 105z" />
<glyph unicode="&#xb8;" horiz-adv-x="563" d="M-10 -399l73 92q86 -27 123 -27q22 0 37.5 18t18.5 50q-1 37 -33 57.5t-92 36.5l55 172h160l-21 -78q80 -13 129 -58.5t49 -119.5q0 -82 -84.5 -137.5t-183.5 -55.5q-92 0 -231 50z" />
<glyph unicode="&#xb9;" horiz-adv-x="522" d="M49 545v84q35 0 50.5 1.5t31.5 7.5t21.5 20.5t5.5 39.5v496h-95v84q51 1 112 19t117.5 40.5t76.5 26.5v-666q0 -46 23.5 -57.5t88.5 -11.5v-84h-432z" />
<glyph unicode="&#xba;" horiz-adv-x="804" d="M72 616v99h659v-99h-659zM90 1092q0 119 86.5 201.5t224.5 82.5q141 0 227.5 -82t86.5 -204q0 -127 -84 -212t-228 -85q-142 0 -227.5 86t-85.5 213zM303 1090q0 -222 98 -222q99 0 99 222q0 213 -99 213q-98 0 -98 -213z" />
<glyph unicode="&#xbb;" horiz-adv-x="925" d="M70 164q0 28 47 61l164 219l-168 220q-33 33 -33 63q0 47 82 47q16 0 33 -5.5t28 -12t28 -17t25 -14.5l302 -272q0 -34 -46 -58l-256 -231q-7 -4 -31 -19.5t-41.5 -22.5t-35.5 -7q-45 0 -71.5 13.5t-26.5 35.5zM391 164q0 32 37 61l172 219l-172 220q-31 35 -31 63 q0 47 84 47q9 0 18 -1.5t18.5 -5t16 -6t17 -9t14.5 -9t15.5 -10t13.5 -8.5l299 -272q0 -37 -41 -58l-258 -231q-4 -3 -17.5 -12t-22 -13.5t-21 -11t-24.5 -9.5t-24 -3q-94 0 -94 49z" />
<glyph unicode="&#xbc;" horiz-adv-x="1507" d="M31 528v86q27 0 41 0.5t30 4.5t23.5 11t12.5 20.5t5 33.5v512h-96v86q52 1 119 20.5t123.5 40.5t77.5 23v-682q0 -47 23.5 -58.5t92.5 -11.5v-86h-452zM221 0l795 1366h168l-797 -1366h-166zM774 190l426 617q2 8 43 22q35 0 59.5 -10.5t24.5 -25.5v-506q26 4 33 55 l137 6l-55 -158h-115v-55q0 -49 14 -49h78v-86h-403v86q37 0 54 2t29.5 13t12.5 34v55h-338zM1006 287h106v239z" />
<glyph unicode="&#xbd;" horiz-adv-x="1515" d="M31 528v86q27 0 41 0.5t30 4.5t23.5 11t12.5 20.5t5 33.5v512h-96v86q52 1 119 20.5t123.5 40.5t77.5 23v-682q0 -47 23.5 -58.5t92.5 -11.5v-86h-452zM221 0l801 1366h162l-797 -1366h-166zM809 0l16 88q64 48 108.5 84t103 93.5t94.5 109t62 117.5t26 131q0 53 -28 92 t-69 39q-40 0 -71 -32.5t-31 -84.5q0 -72 67 -98q-14 -37 -43.5 -54.5t-62.5 -17.5q-72 0 -113 46t-41 97q0 100 93 162t210 62q131 0 227.5 -70t96.5 -180q0 -56 -22 -111.5t-52.5 -97.5t-81 -89t-90 -77t-96.5 -70h184q9 0 16.5 4.5t13 15t9.5 19t9.5 25.5t9.5 26h131 l-72 -229h-604z" />
<glyph unicode="&#xbe;" horiz-adv-x="1613" d="M27 690q0 69 28 92t88 23q16 0 55.5 -2t63.5 -2q-29 -68 -29 -88q0 -46 28.5 -77.5t64.5 -31.5q54 0 82 44.5t28 113.5q0 59 -17.5 105.5t-56.5 50.5q-6 -1 -55 -16t-76 -15q-58 0 -63 61v2q0 56 133 56h61q26 8 40 47t14 82q0 62 -23 106.5t-67 44.5q-60 0 -60 -43 q0 -49 64 -117q-74 -26 -121 -26q-58 0 -95.5 29t-37.5 69q0 53 44.5 92t101 55.5t112.5 16.5q73 0 142.5 -26t117 -77t47.5 -114q0 -125 -100 -176q131 -69 131 -201q0 -79 -55 -138.5t-135 -87.5t-167 -28q-64 0 -127 17.5t-112 59t-49 99.5zM334 0l788 1366h166 l-794 -1366h-160zM879 190l430 617q7 14 41 22q33 0 57.5 -10.5t24.5 -25.5v-506q25 4 34 55l138 6l-58 -158h-114v-55q0 -49 14 -49h78v-86h-398v86q34 0 50.5 2t28.5 13.5t12 33.5v55h-338zM1112 287h105v239z" />
<glyph unicode="&#xbf;" horiz-adv-x="739" d="M31 -156q0 55 21 111t58 102.5t94.5 75.5t123.5 29q38 0 63 -19v308q44 -5 82 -5q35 0 74 5v-467h-103q-33 61 -65 61q-36 0 -61 -67t-25 -150q0 -42 6 -82t19 -79.5t39 -64t61 -24.5q29 0 50.5 10t32.5 25t21.5 32.5t17.5 33t20 26.5t30 12q54 0 89.5 -21.5t35.5 -57.5 q0 -41 -31.5 -74t-79.5 -50.5t-96.5 -26.5t-91.5 -9q-164 0 -274.5 108.5t-110.5 257.5zM330 774q0 58 41 98.5t100 40.5t100 -40.5t41 -98.5q0 -57 -41 -96t-100 -39t-100 39t-41 96z" />
<glyph unicode="&#xc0;" d="M31 0v102q93 2 139.5 26t77.5 95l512 1174h147l537 -1174q28 -63 70.5 -91.5t115.5 -29.5v-102h-663v100q70 0 108.5 22t38.5 58q0 17 -4 27l-94 246h-479l-97 -236q-16 -37 -16 -53q0 -27 22.5 -41.5t48.5 -17.5t68 -3h37v-102h-569zM487 1704q0 12 15 20.5t41 8.5 q18 0 73 -11.5t89 -11.5q73 0 143 25l137 -281q-16 -35 -65 -35q-23 0 -70 15l-332 229q-31 19 -31 41zM592 578h360l-180 421z" />
<glyph unicode="&#xc1;" d="M31 0v102q93 2 139.5 26t77.5 95l512 1174h147l537 -1174q28 -63 70.5 -91.5t115.5 -29.5v-102h-663v100q70 0 108.5 22t38.5 58q0 17 -4 27l-94 246h-479l-97 -236q-16 -37 -16 -53q0 -27 22.5 -41.5t48.5 -17.5t68 -3h37v-102h-569zM592 578h360l-180 421zM705 1468 l135 267q98 -25 153 -25q24 0 78.5 13.5t81.5 13.5t42 -9.5t15 -23.5q0 -25 -43 -43l-333 -227q-28 -11 -66 -11q-63 0 -63 45z" />
<glyph unicode="&#xc2;" d="M31 0v102q93 2 139.5 26t77.5 95l512 1174h147l537 -1174q28 -63 70.5 -91.5t115.5 -29.5v-102h-663v100q70 0 108.5 22t38.5 58q0 17 -4 27l-94 246h-479l-97 -236q-16 -37 -16 -53q0 -27 22.5 -41.5t48.5 -17.5t68 -3h37v-102h-569zM530 1468q0 13 9 25l290 252 l289 -250q17 -17 17 -33q0 -22 -24 -39.5t-60 -17.5q-26 0 -56 12l-166 123l-163 -123q-22 -10 -52 -10q-36 0 -60 18t-24 43zM592 578h360l-180 421z" />
<glyph unicode="&#xc3;" d="M31 0v102q93 2 139.5 26t77.5 95l512 1174h147l537 -1174q28 -63 70.5 -91.5t115.5 -29.5v-102h-663v100q70 0 108.5 22t38.5 58q0 17 -4 27l-94 246h-479l-97 -236q-16 -37 -16 -53q0 -27 22.5 -41.5t48.5 -17.5t68 -3h37v-102h-569zM428 1477q45 59 81.5 98t94.5 71.5 t117 32.5q50 0 146 -27.5t147 -27.5q29 0 53 14t63 48l105 -39q-73 -90 -139.5 -140.5t-149.5 -50.5q-49 0 -146.5 26.5t-146.5 26.5q-7 0 -14 -1t-14 -4t-11.5 -4.5t-12 -7.5t-10.5 -8t-11 -10l-10 -10t-11.5 -12t-11.5 -12zM592 578h360l-180 421z" />
<glyph unicode="&#xc4;" d="M31 0v102q93 2 139.5 26t77.5 95l512 1174h147l537 -1174q28 -63 70.5 -91.5t115.5 -29.5v-102h-663v100q70 0 108.5 22t38.5 58q0 17 -4 27l-94 246h-479l-97 -236q-16 -37 -16 -53q0 -27 22.5 -41.5t48.5 -17.5t68 -3h37v-102h-569zM512 1579q0 53 37 90t90 37t90 -37 t37 -90t-37 -90t-90 -37t-90 37t-37 90zM592 578h360l-180 421zM903 1579q0 53 37.5 90t89.5 37t89.5 -37t37.5 -90t-37.5 -90t-89.5 -37t-89.5 37t-37.5 90z" />
<glyph unicode="&#xc5;" d="M31 0v102q93 2 139.5 26t77.5 95l512 1174h147l537 -1174q28 -63 70.5 -91.5t115.5 -29.5v-102h-663v100q70 0 108.5 22t38.5 58q0 17 -4 27l-94 246h-479l-97 -236q-16 -37 -16 -53q0 -27 22.5 -41.5t48.5 -17.5t68 -3h37v-102h-569zM592 578h360l-180 421zM614 1604 q0 76 64 132t153 56q92 0 158 -58.5t66 -136.5q0 -76 -65.5 -129t-158.5 -53q-89 0 -153 56t-64 133zM768 1604q0 -26 24.5 -49t38.5 -23q20 0 46 22.5t26 49.5h-4q0 26 -24.5 48.5t-43.5 22.5q-14 0 -38.5 -23t-24.5 -48z" />
<glyph unicode="&#xc7;" horiz-adv-x="1505" d="M57 662q0 120 34 231t99.5 202.5t155 160t206 106t247.5 37.5q221 0 426 -127q5 14 12.5 45t13.5 49h123l37 -524h-149q-107 448 -455 448q-86 0 -156 -36t-116 -95t-77.5 -138t-45 -160.5t-13.5 -166.5q0 -93 15.5 -178t50.5 -162.5t86.5 -134t128 -90t170.5 -33.5 q152 0 284 90.5t201 243.5l148 -76q-88 -178 -257.5 -283.5t-365.5 -113.5l-4 -41q170 -45 170 -178q0 -83 -80 -139t-176 -56q-122 0 -260 72l92 72q65 -33 129 -39q25 2 43.5 27t18.5 61q0 20 -9 36t-31 29t-38 20t-51 21l47 115q-193 9 -343.5 106t-230.5 254t-80 345z " />
<glyph unicode="&#xc8;" horiz-adv-x="1320" d="M35 0v102q37 1 53 2t42.5 4t37.5 8t26.5 15t21.5 24.5t10.5 35.5t4.5 49v886q0 28 -4.5 49t-10.5 35.5t-21.5 24.5t-26.5 15t-37.5 8t-42.5 4t-53 2v102h1093l46 -365h-152q-27 127 -80 193t-154 66h-247v-482h77q74 0 110 44.5t42 140.5h152v-490h-152q-5 35 -7 46.5 t-7.5 38.5t-9.5 35t-12.5 25.5t-18 23t-23.5 14t-32.5 10.5t-41.5 2h-77v-406q0 -89 41 -122.5t125 -33.5q47 0 74 1t65.5 5.5t63.5 14.5t54 26.5t52 43t43 63.5q2 3 11 19.5l12 22t10.5 21t11 23.5t9 22.5t8 26t5.5 26t4 28.5h148l-37 -449h-1206zM326 1694q0 14 15.5 22 t41.5 8q17 0 71 -11t89 -11q73 0 141 24l137 -284q-24 -31 -65 -31q-28 0 -68 14l-334 230q-28 17 -28 39z" />
<glyph unicode="&#xc9;" horiz-adv-x="1320" d="M35 0v102q37 1 53 2t42.5 4t37.5 8t26.5 15t21.5 24.5t10.5 35.5t4.5 49v886q0 28 -4.5 49t-10.5 35.5t-21.5 24.5t-26.5 15t-37.5 8t-42.5 4t-53 2v102h1093l46 -365h-152q-27 127 -80 193t-154 66h-247v-482h77q74 0 110 44.5t42 140.5h152v-490h-152q-5 35 -7 46.5 t-7.5 38.5t-9.5 35t-12.5 25.5t-18 23t-23.5 14t-32.5 10.5t-41.5 2h-77v-406q0 -89 41 -122.5t125 -33.5q47 0 74 1t65.5 5.5t63.5 14.5t54 26.5t52 43t43 63.5q2 3 11 19.5l12 22t10.5 21t11 23.5t9 22.5t8 26t5.5 26t4 28.5h148l-37 -449h-1206zM483 1460q0 9 2 13 l133 266q95 -25 150 -25q25 0 78 12.5t80 12.5q57 0 57 -31q0 -26 -41 -43l-332 -227q-28 -11 -69 -11q-58 0 -58 33z" />
<glyph unicode="&#xca;" horiz-adv-x="1325" d="M35 0v102q33 1 47 1.5t38.5 3t34.5 6t26.5 10.5t22.5 16.5t14 24t10.5 34t2.5 44.5v884q0 28 -5 49t-10.5 35.5t-21.5 24.5t-26 15.5t-37.5 8.5t-42.5 4t-53 3v100h1093l46 -362h-152q-27 125 -80 190.5t-154 65.5h-247v-482h77q74 0 110 44.5t42 140.5h152v-490h-152 q-5 35 -7 46.5t-7.5 38.5t-9.5 35t-12.5 25.5t-18 23t-23.5 14t-32.5 10.5t-41.5 2h-77v-406q0 -89 41 -122.5t125 -33.5q46 0 73.5 1t65.5 5.5t63.5 14.5t54.5 26.5t52 43t43 63.5q3 6 14.5 27t16 30t13.5 28.5t13 33.5t8.5 33.5t5.5 38.5h148l-37 -451h-1206zM358 1477 q0 10 2 14l289 254l287 -250q16 -13 16 -29q0 -23 -28.5 -42t-63.5 -19q-24 0 -45 12l-166 123l-168 -123q-21 -6 -39 -6q-37 0 -60.5 20t-23.5 46z" />
<glyph unicode="&#xcb;" horiz-adv-x="1320" d="M35 0v102q37 1 53 2t42.5 4t37.5 8t26.5 15t21.5 24.5t10.5 35.5t4.5 49v886q0 28 -4.5 49t-10.5 35.5t-21.5 24.5t-26.5 15t-37.5 8t-42.5 4t-53 2v102h1093l46 -365h-152q-27 127 -80 193t-154 66h-247v-482h77q74 0 110 44.5t42 140.5h152v-490h-152q-5 35 -7 46.5 t-7.5 38.5t-9.5 35t-12.5 25.5t-18 23t-23.5 14t-32.5 10.5t-41.5 2h-77v-406q0 -89 41 -122.5t125 -33.5q47 0 74 1t65.5 5.5t63.5 14.5t54 26.5t52 43t43 63.5q2 3 11 19.5l12 22t10.5 21t11 23.5t9 22.5t8 26t5.5 26t4 28.5h148l-37 -449h-1206zM332 1579q0 53 37 90 t90 37t90 -37t37 -90t-37 -90t-90 -37t-90 37t-37 90zM723 1579q0 53 37.5 90t89.5 37t89.5 -37t37.5 -90t-37.5 -90t-89.5 -37t-89.5 37t-37.5 90z" />
<glyph unicode="&#xcc;" horiz-adv-x="757" d="M35 0v102q28 1 40 1.5t34.5 2t31.5 4.5t25 7.5t22 11.5t15.5 17t12.5 23.5t6 31t3 39.5v886q0 22 -3 39.5t-6 31t-12.5 23.5t-15.5 17t-22 11.5t-25 7.5t-31.5 4.5t-34.5 2t-40 1.5v102h694v-102q-112 -3 -139 -12q-40 -14 -49 -66q-4 -23 -4 -60v-886q0 -48 8.5 -76 t39.5 -41.5t51.5 -16t81.5 -5.5q7 -1 11 -1v-100h-694zM74 1702q0 14 15 22.5t40 8.5q18 0 71 -11.5t85 -11.5q70 0 137 25l135 -281q-16 -35 -63 -35q-25 0 -68 15l-324 229q-28 22 -28 39z" />
<glyph unicode="&#xcd;" horiz-adv-x="757" d="M35 0v102q28 1 40 1.5t34.5 2t31.5 4.5t25 7.5t22 11.5t15.5 17t12.5 23.5t6 31t3 39.5v886q0 22 -3 39.5t-6 31t-12.5 23.5t-15.5 17t-22 11.5t-25 7.5t-31.5 4.5t-34.5 2t-40 1.5v102h694v-102q-112 -3 -139 -12q-40 -14 -49 -66q-4 -23 -4 -60v-886q0 -48 8.5 -76 t39.5 -41.5t51.5 -16t81.5 -5.5q7 -1 11 -1v-100h-694zM223 1462q0 1 1 3.5t1 4.5l129 267q95 -25 148 -25q24 0 77 13.5t80 13.5q26 0 42 -9.5t16 -23.5q0 -25 -43 -43l-326 -227q-22 -11 -63 -11q-62 0 -62 37z" />
<glyph unicode="&#xce;" horiz-adv-x="763" d="M35 0v102q28 1 40 1.5t34.5 2t31.5 4.5t25 7.5t22 11.5t15.5 17t12.5 23.5t6 31t3 39.5v886q0 22 -3 39.5t-6 31t-12.5 23.5t-15.5 17t-22 11.5t-25 7.5t-31.5 4.5t-34.5 2t-40 1.5v102h694v-102q-112 -3 -139 -12q-40 -14 -49 -66q-4 -23 -4 -60v-886q0 -48 8.5 -76 t39.5 -41.5t51.5 -16t81.5 -5.5q7 -1 11 -1v-100h-694zM88 1464q0 12 6 27l285 254l280 -250q15 -12 15 -29q0 -24 -24.5 -43.5t-57.5 -19.5q-25 0 -47 14l-166 123l-164 -123q-21 -8 -49 -8q-33 0 -55.5 15t-22.5 40z" />
<glyph unicode="&#xcf;" horiz-adv-x="751" d="M35 0v102q28 1 40 1.5t34.5 2t31.5 4.5t25 7.5t22 11.5t15.5 17t12.5 23.5t6 31t3 39.5v886q0 22 -3 39.5t-6 31t-12.5 23.5t-15.5 17t-22 11.5t-25 7.5t-31.5 4.5t-34.5 2t-40 1.5v102h694v-102q-112 -3 -139 -12q-40 -14 -49 -66q-4 -23 -4 -60v-886q0 -48 8.5 -76 t39.5 -41.5t51.5 -16t81.5 -5.5q7 -1 11 -1v-100h-694zM45 1579q0 53 37.5 90t89.5 37t89.5 -37t37.5 -90t-37.5 -90t-89.5 -37t-89.5 37t-37.5 90zM436 1579q0 53 37 90t90 37t90 -37t37 -90t-37 -90t-90 -37t-90 37t-37 90z" />
<glyph unicode="&#xd0;" horiz-adv-x="1529" d="M39 0v102q28 1 40 1.5t34.5 2t31.5 4.5t25 7.5t22 11.5t15.5 17t12.5 23.5t6 31t3 39.5v417h-141v117h141v352q0 22 -3 39.5t-6 31t-12.5 23.5t-15.5 17t-22 11.5t-25 7.5t-31.5 4.5t-34.5 2t-40 1.5v102h573q86 0 134.5 -1.5t122.5 -10.5t130 -27q224 -74 349 -250.5 t125 -404.5q0 -201 -89.5 -353.5t-252.5 -235.5t-375 -83h-717zM530 307q0 -68 7.5 -106t31 -59.5t56 -27t94.5 -5.5q89 0 160 31t117.5 83t77 125.5t43.5 154.5t13 173q0 284 -124 436t-383 152q-27 0 -93 -4v-486h318v-117h-318v-350z" />
<glyph unicode="&#xd1;" horiz-adv-x="1538" d="M35 0v102q106 3 148 47.5t42 147.5v831q0 28 -4.5 49t-10 35.5t-21 24.5t-25.5 15.5t-36.5 8.5t-41 4t-51.5 3v102h463l651 -950l-2 670q0 54 -7.5 86.5t-26 48t-35 21.5t-51 12t-56.5 14v98h551v-102q-106 -1 -148.5 -42.5t-42.5 -135.5v-1102h-162l-768 1097v-735 q0 -38 1 -61.5t5 -52t12.5 -45.5t23 -35t36.5 -28t53.5 -17.5t73.5 -10.5v-100h-571zM389 1477q65 92 132 147t147 55q50 0 142.5 -27.5t143.5 -27.5q30 0 53.5 15t55.5 47l108 -39q-72 -91 -136 -141t-144 -50q-48 0 -142.5 26.5t-142.5 26.5q-21 0 -42.5 -11t-34.5 -22.5 t-37 -35.5z" />
<glyph unicode="&#xd2;" horiz-adv-x="1626" d="M57 682q0 156 59 290t162 227.5t247.5 146.5t310.5 53q224 0 402.5 -90.5t279 -254.5t100.5 -372q0 -205 -101.5 -369t-280 -256t-400.5 -92q-164 0 -308 54t-247.5 148.5t-163.5 228t-60 286.5zM401 684q0 -95 13 -179.5t45 -165t80.5 -138t124.5 -92.5t172 -35 q97 0 173 35t124.5 93t80 138.5t44 165t12.5 178.5t-12.5 178.5t-44 165t-80 138.5t-124.5 93t-173 35q-80 0 -146.5 -24t-113 -68t-81.5 -100.5t-55 -126.5t-29.5 -141.5t-9.5 -149.5zM561 1702q0 14 15 22.5t40 8.5q17 0 70 -11.5t86 -11.5q70 0 137 25l133 -285 q-24 -31 -65 -31q-25 0 -68 15l-319 229q-29 20 -29 39z" />
<glyph unicode="&#xd3;" horiz-adv-x="1626" d="M57 682q0 156 59 290t162 227.5t247.5 146.5t310.5 53q224 0 402.5 -90.5t279 -254.5t100.5 -372q0 -205 -101.5 -369t-280 -256t-400.5 -92q-164 0 -308 54t-247.5 148.5t-163.5 228t-60 286.5zM401 684q0 -95 13 -179.5t45 -165t80.5 -138t124.5 -92.5t172 -35 q97 0 173 35t124.5 93t80 138.5t44 165t12.5 178.5t-12.5 178.5t-44 165t-80 138.5t-124.5 93t-173 35q-80 0 -146.5 -24t-113 -68t-81.5 -100.5t-55 -126.5t-29.5 -141.5t-9.5 -149.5zM678 1460q0 1 1 3.5t1 4.5l133 267q95 -25 145 -25q23 0 76.5 13.5t79.5 13.5 q25 0 40 -9t15 -22q0 -11 -11.5 -24t-33.5 -21l-315 -227q-28 -11 -68 -11q-63 0 -63 37z" />
<glyph unicode="&#xd4;" horiz-adv-x="1626" d="M57 682q0 156 59 290t162 227.5t247.5 146.5t310.5 53q224 0 402.5 -90.5t279 -254.5t100.5 -372q0 -205 -101.5 -369t-280 -256t-400.5 -92q-164 0 -308 54t-247.5 148.5t-163.5 228t-60 286.5zM401 684q0 -95 13 -179.5t45 -165t80.5 -138t124.5 -92.5t172 -35 q97 0 173 35t124.5 93t80 138.5t44 165t12.5 178.5t-12.5 178.5t-44 165t-80 138.5t-124.5 93t-173 35q-80 0 -146.5 -24t-113 -68t-81.5 -100.5t-55 -126.5t-29.5 -141.5t-9.5 -149.5zM520 1456q0 25 17 39l274 250l279 -250q20 -17 20 -37q0 -23 -21 -39t-55 -16 q-28 0 -63 14l-160 123l-156 -123q-39 -16 -69 -16q-33 0 -49.5 16t-16.5 39z" />
<glyph unicode="&#xd5;" horiz-adv-x="1626" d="M55 684q0 156 57 290t157 228t240 147.5t302 53.5t303 -53.5t241.5 -147.5t158 -228t57.5 -290q0 -206 -99 -370.5t-272.5 -256.5t-388.5 -92q-213 0 -385.5 92.5t-271.5 257t-99 369.5zM391 686q0 -95 12.5 -179.5t43 -165t77 -138t120.5 -92.5t167 -35q79 0 143.5 24 t109.5 68t78 100.5t52 126.5t28 141.5t9 149.5q0 95 -12 179t-42.5 165t-77 139t-120.5 93.5t-168 35.5q-92 0 -165.5 -35.5t-120.5 -93.5t-78 -138.5t-43.5 -165.5t-12.5 -179zM422 1475q65 91 132.5 146.5t147.5 55.5q49 0 142 -27.5t143 -27.5q28 0 51.5 14.5t57.5 46.5 l104 -38q-65 -87 -131.5 -139t-144.5 -52q-47 0 -141.5 26.5t-141.5 26.5q-20 0 -39 -11t-29.5 -22t-31.5 -36z" />
<glyph unicode="&#xd6;" horiz-adv-x="1626" d="M57 682q0 156 59 290t162 227.5t247.5 146.5t310.5 53q224 0 402.5 -90.5t279 -254.5t100.5 -372q0 -205 -101.5 -369t-280 -256t-400.5 -92q-164 0 -308 54t-247.5 148.5t-163.5 228t-60 286.5zM401 684q0 -95 13 -179.5t45 -165t80.5 -138t124.5 -92.5t172 -35 q97 0 173 35t124.5 93t80 138.5t44 165t12.5 178.5t-12.5 178.5t-44 165t-80 138.5t-124.5 93t-173 35q-80 0 -146.5 -24t-113 -68t-81.5 -100.5t-55 -126.5t-29.5 -141.5t-9.5 -149.5zM485 1579q0 53 37.5 90t89.5 37t89.5 -37t37.5 -90t-37.5 -90t-89.5 -37t-89.5 37 t-37.5 90zM877 1579q0 53 37.5 90t89.5 37t89 -37t37 -90t-37 -90t-89 -37t-89.5 37t-37.5 90z" />
<glyph unicode="&#xd7;" horiz-adv-x="968" d="M47 408l305 301l-303 299l131 90l303 -297l299 299l138 -92l-310 -301l308 -299l-132 -93l-301 299l-305 -301z" />
<glyph unicode="&#xd8;" horiz-adv-x="1630" d="M57 682q0 206 97.5 368.5t270 252.5t388.5 90q236 0 406 -117l137 168l133 -70l-168 -170q123 -97 187.5 -233t64.5 -289q0 -205 -98 -367.5t-271.5 -253t-390.5 -90.5q-234 0 -414 121l-133 -166l-137 70l145 178q-104 101 -160.5 234t-56.5 274zM393 684 q0 -249 35 -381l672 854q-60 64 -135 98.5t-152 34.5q-93 0 -166 -34.5t-120 -92t-78 -137.5t-43.5 -164t-12.5 -178zM528 207q55 -60 131 -93.5t154 -33.5q93 0 166.5 34.5t120 92t77 137t42.5 163t12 177.5v78q0 192 -29 289z" />
<glyph unicode="&#xd9;" horiz-adv-x="1445" d="M8 1268v98h688v-98q-10 0 -31 -0.5t-31.5 -1t-28 -2.5t-27.5 -6t-23.5 -10.5t-20.5 -17t-14.5 -25t-10.5 -35t-3 -46.5v-639q0 -81 5 -136t21 -112t46 -90t81.5 -54t124.5 -21q67 0 116 20.5t79 54.5t48 86.5t24 107t6 126.5v645q0 92 -42.5 121t-150.5 37v96h574v-96 q-21 -3 -51.5 -5t-45 -3.5t-34.5 -6t-29 -12t-18.5 -20.5t-13 -33.5t-3.5 -50.5v-27v-643q0 -94 -12 -167.5t-43.5 -139t-82.5 -108.5t-132 -68t-189 -25q-109 0 -187.5 8t-147.5 28.5t-113.5 56t-76.5 91t-46 133.5t-14 183v663q0 26 -2.5 45.5t-10.5 34t-14 24.5t-22.5 17 t-25.5 11t-34 6.5t-37 3t-45 2.5zM438 1706q0 14 16 22.5t42 8.5q17 0 69.5 -11.5t85.5 -11.5q70 0 137 25l140 -285q-24 -31 -68 -31q-26 0 -69 15l-324 229q-29 17 -29 39z" />
<glyph unicode="&#xda;" horiz-adv-x="1445" d="M8 1268v98h688v-98q-10 0 -31 -0.5t-31.5 -1t-28 -2.5t-27.5 -6t-23.5 -10.5t-20.5 -17t-14.5 -25t-10.5 -35t-3 -46.5v-635q0 -81 5 -136t21 -112t46 -90t81.5 -54t124.5 -21q67 0 116 20.5t79 54.5t48 86.5t24 107t6 126.5v641q0 49 -11 79t-39 46t-58.5 22t-84.5 9v98 h574v-98q-19 -2 -46 -3.5t-40.5 -2.5t-32.5 -4t-28 -7.5t-20.5 -13.5t-16 -22t-8 -31.5t-3.5 -44.5v-27v-639q0 -94 -12 -167.5t-43.5 -139t-82.5 -108.5t-132 -68t-189 -25q-109 0 -187.5 8t-147.5 28.5t-113.5 56t-76.5 91t-46 133.5t-14 183v659q0 26 -2.5 45.5t-10.5 34 t-14 24.5t-22.5 17t-25.5 11t-34 6.5t-37 3t-45 2.5zM623 1458q0 2 1 5t1 5l131 267q95 -25 147 -25q23 0 76 13.5t80 13.5q25 0 40 -9.5t15 -23.5q0 -26 -41 -43l-323 -227q-33 -11 -68 -11q-59 0 -59 35z" />
<glyph unicode="&#xdb;" horiz-adv-x="1460" d="M16 1268v98h689v-98q-11 0 -35 -0.5t-35.5 -1t-31.5 -3.5t-30.5 -8t-24 -15.5t-20 -25t-11.5 -37t-5 -51.5v-639q0 -81 5 -136.5t21.5 -111.5t46 -89.5t81.5 -54.5t125 -21q44 0 80 7.5t62.5 19t47.5 32t34.5 39.5t23.5 49.5t15 54.5t7.5 60.5t3 61.5t0.5 65v24v627 q0 39 -8.5 65.5t-22 43t-40.5 26t-52.5 14t-69.5 7.5v96h574v-96q-22 -3 -58 -5.5t-51 -4.5t-36 -9t-29 -19.5t-14.5 -34.5t-6.5 -56v-27v-643q0 -118 -20.5 -205t-70.5 -157.5t-142.5 -107t-226.5 -36.5q-108 0 -186 8t-147 28.5t-113.5 56t-77.5 90.5t-47.5 132.5 t-14.5 182.5v663q0 22 -3 40t-6 31.5t-12.5 24t-15.5 17.5t-22.5 12t-24.5 7.5t-31 4.5t-34 3t-40 2zM434 1452q0 27 19 43l274 250l277 -250q18 -15 18 -35q0 -22 -23.5 -38.5t-56.5 -16.5q-28 0 -55 12l-160 123l-156 -123q-40 -18 -75 -18q-30 0 -46 15.5t-16 37.5z" />
<glyph unicode="&#xdc;" horiz-adv-x="1445" d="M8 1266v100h688v-100q-11 0 -34.5 -0.5t-35 -1t-31.5 -3.5t-30 -8t-23.5 -15.5t-19.5 -25t-11 -37t-5 -51.5v-635q0 -81 5 -136t21 -112t46 -90t81.5 -54t124.5 -21q56 0 99 12t71.5 30.5t48.5 51t30.5 60.5t16 74t6.5 78t1 83v24v623q0 39 -8.5 65.5t-22 43t-40.5 26 t-52.5 14t-69.5 7.5v98h574v-98q-21 -3 -51 -5t-44.5 -4t-34.5 -6t-29.5 -11.5t-19 -20.5t-13 -33t-3.5 -49v-27v-639q0 -93 -12 -166.5t-43.5 -139.5t-82.5 -109t-132 -68t-189 -25q-109 0 -187.5 8t-147.5 28.5t-113.5 56t-76.5 91t-46 133.5t-14 183v659q0 22 -3 40 t-6 31.5t-13 24t-16 17.5t-22.5 12t-25 7.5t-31.5 4.5t-34 3t-40 2zM426 1579q0 53 37 90t90 37t90 -37t37 -90t-37 -90t-90 -37t-90 37t-37 90zM817 1579q0 53 37.5 90t89.5 37t89.5 -37t37.5 -90t-37.5 -90t-89.5 -37t-89.5 37t-37.5 90z" />
<glyph unicode="&#xdd;" horiz-adv-x="1419" d="M-8 1272v100h647v-100h-78h-10q-35 0 -35 -31q0 -23 14 -47l258 -426l248 426q-10 12 -10 41q0 23 -24.5 30t-77.5 7h-72v100h567v-100q-90 -5 -144.5 -30.5t-92.5 -88.5l-324 -543v-368q0 -28 4.5 -49t11 -35.5t20 -24.5t25.5 -15.5t34 -9t38 -4.5t45 -2v-102h-674v102 q30 1 40.5 1.5t34.5 2.5t32 4t25.5 5.5t23.5 8.5t17 12.5t14.5 17.5t9 23t7 29t1.5 36v366l-366 563q-36 55 -82 76.5t-127 24.5zM520 1458q0 2 1 5t1 5l131 267q98 -25 148 -25q23 0 74.5 12.5t78.5 12.5t42.5 -9t15.5 -22q0 -26 -41 -43l-322 -227q-39 -13 -69 -13 q-60 0 -60 37z" />
<glyph unicode="&#xde;" horiz-adv-x="1202" d="M33 0v102q36 1 51 2t40.5 4t35.5 8t25 15t20 24.5t9.5 35.5t4.5 49v886q0 38 -9 63.5t-21.5 39.5t-40.5 22t-49.5 10.5t-65.5 4.5v100h684v-102q-61 -3 -95 -7t-57 -9.5t-31.5 -20.5t-11 -29t-2.5 -45q16 0 46 1t48 1q89 0 161.5 -8t147.5 -32t126 -64t83.5 -108 t32.5 -159q0 -57 -12 -105t-31.5 -83t-51.5 -62.5t-63.5 -46t-77 -31.5t-83 -20t-90 -10.5t-89 -4.5t-89.5 -1h-58v-180q0 -39 8 -64.5t21 -40t39 -21.5t51.5 -9t69.5 -3h8v-102h-684zM520 520h105q106 0 161.5 71.5t55.5 196.5q0 85 -16.5 141.5t-49 84t-68 37.5t-85.5 10 q-33 0 -103 -4v-537z" />
<glyph unicode="&#xdf;" horiz-adv-x="1118" d="M35 0v100q72 1 98.5 36t26.5 104v774q0 171 118.5 278t303.5 107q107 0 198 -39t148 -115t57 -174q0 -95 -54 -159t-147 -111q124 -50 193.5 -152.5t69.5 -236.5q0 -80 -26.5 -156.5t-74.5 -139t-124.5 -101t-168.5 -38.5q-21 3 -33.5 7.5t-31.5 16.5t-31 38.5t-16 66.5 q12 50 90 50q24 0 39.5 -13t21 -34t7 -33t1.5 -25v-2q34 34 46 108t14 189q0 76 -1 110.5t-6 86.5t-16 73t-31 50t-51.5 39t-76.5 18t-107 8l45 115q108 0 153.5 55t45.5 176q0 102 -38 164t-118 62q-68 0 -99.5 -56.5t-31.5 -148.5v-871v-8q0 -29 2 -45t10 -35t27 -28.5 t51 -10.5l-2 -100h-481z" />
<glyph unicode="&#xe0;" horiz-adv-x="1038" d="M74 201q0 68 23 119t58.5 79t88.5 50.5t101 33.5t109.5 27.5t100.5 32.5v53q0 46 -3 74.5t-12.5 57.5t-30.5 42.5t-54 13.5q-49 0 -77.5 -20t-40 -49t-20.5 -58t-30 -49t-58 -20q-50 0 -95.5 24t-45.5 62q0 52 39 94.5t98.5 66.5t120.5 37t113 13q82 0 144.5 -13.5 t113 -43.5t77.5 -84.5t27 -131.5v-501q63 47 68 102h127q-72 -236 -248 -236q-73 0 -122 31.5t-64 87.5q-55 -54 -124 -85t-139 -31q-111 0 -178 62t-67 159zM219 1212q0 15 15.5 24t41.5 9q16 0 67 -10t83 -10q79 0 135 22l135 -280q-21 -33 -65 -33q-26 0 -66 14l-319 228 q-27 18 -27 36zM338 254q0 -123 78 -123q33 0 71.5 21.5t67.5 50.5v237q-15 -7 -42.5 -17t-47.5 -17.5t-44.5 -21.5t-40 -30t-28 -42t-14.5 -58z" />
<glyph unicode="&#xe1;" horiz-adv-x="1038" d="M74 201q0 68 23 119t58.5 79t88.5 50.5t101 33.5t109.5 27.5t100.5 32.5v53q0 46 -3 74.5t-12.5 57.5t-30.5 42.5t-54 13.5q-49 0 -77.5 -20t-40 -49t-20.5 -58t-30 -49t-58 -20q-50 0 -95.5 24t-45.5 62q0 52 39 94.5t98.5 66.5t120.5 37t113 13q82 0 144.5 -13.5 t113 -43.5t77.5 -84.5t27 -131.5v-501q63 47 68 102h127q-72 -236 -248 -236q-73 0 -122 31.5t-64 87.5q-55 -54 -124 -85t-139 -31q-111 0 -178 62t-67 159zM336 973q0 2 1 5t1 5l127 264q89 -24 145 -24q23 0 76.5 13t79.5 13q24 0 38.5 -9t14.5 -21q0 -25 -45 -45 l-313 -226q-30 -10 -68 -10q-57 0 -57 35zM338 254q0 -123 78 -123q33 0 71.5 21.5t67.5 50.5v237q-15 -7 -42.5 -17t-47.5 -17.5t-44.5 -21.5t-40 -30t-28 -42t-14.5 -58z" />
<glyph unicode="&#xe2;" horiz-adv-x="1038" d="M74 201q0 68 23 119t58.5 79t88.5 50.5t101 33.5t109.5 27.5t100.5 32.5v53q0 46 -3 74.5t-12.5 57.5t-30.5 42.5t-54 13.5q-49 0 -77.5 -20t-40 -49t-20.5 -58t-30 -49t-58 -20q-50 0 -95.5 24t-45.5 62q0 52 39 94.5t98.5 66.5t120.5 37t113 13q82 0 144.5 -13.5 t113 -43.5t77.5 -84.5t27 -131.5v-501q63 47 68 102h127q-72 -236 -248 -236q-73 0 -122 31.5t-64 87.5q-55 -54 -124 -85t-139 -31q-111 0 -178 62t-67 159zM203 979q0 19 12 43l274 252l277 -246q16 -13 16 -39q0 -22 -17.5 -37.5t-49.5 -15.5t-62 12l-164 123l-153 -125 q-45 -10 -70 -10q-63 0 -63 43zM338 254q0 -123 78 -123q33 0 71.5 21.5t67.5 50.5v237q-15 -7 -42.5 -17t-47.5 -17.5t-44.5 -21.5t-40 -30t-28 -42t-14.5 -58z" />
<glyph unicode="&#xe3;" horiz-adv-x="1038" d="M74 201q0 68 23 119t58.5 79t88.5 50.5t101 33.5t109.5 27.5t100.5 32.5v53q0 46 -3 74.5t-12.5 57.5t-30.5 42.5t-54 13.5q-49 0 -77.5 -20t-40 -49t-20.5 -58t-30 -49t-58 -20q-50 0 -95.5 24t-45.5 62q0 52 39 94.5t98.5 66.5t120.5 37t113 13q82 0 144.5 -13.5 t113 -43.5t77.5 -84.5t27 -131.5v-501q63 47 68 102h127q-72 -236 -248 -236q-73 0 -122 31.5t-64 87.5q-55 -54 -124 -85t-139 -31q-111 0 -178 62t-67 159zM109 1008q135 200 276 200q49 0 141.5 -27.5t141.5 -27.5q19 0 39.5 9.5t31 18.5t39.5 33l103 -38 q-71 -90 -135 -139.5t-144 -49.5q-45 0 -135 26.5t-135 26.5q-29 0 -52.5 -17.5t-54.5 -51.5zM338 254q0 -123 78 -123q33 0 71.5 21.5t67.5 50.5v237q-15 -7 -42.5 -17t-47.5 -17.5t-44.5 -21.5t-40 -30t-28 -42t-14.5 -58z" />
<glyph unicode="&#xe4;" horiz-adv-x="1038" d="M74 201q0 68 23 119t58.5 79t88.5 50.5t101 33.5t109.5 27.5t100.5 32.5v53q0 46 -3 74.5t-12.5 57.5t-30.5 42.5t-54 13.5q-49 0 -77.5 -20t-40 -49t-20.5 -58t-30 -49t-58 -20q-50 0 -95.5 24t-45.5 62q0 52 39 94.5t98.5 66.5t120.5 37t113 13q82 0 144.5 -13.5 t113 -43.5t77.5 -84.5t27 -131.5v-501q63 47 68 102h127q-72 -236 -248 -236q-73 0 -122 31.5t-64 87.5q-55 -54 -124 -85t-139 -31q-111 0 -178 62t-67 159zM125 1108q0 58 41.5 99.5t99.5 41.5q59 0 100.5 -41.5t41.5 -99.5t-41.5 -99.5t-100.5 -41.5q-58 0 -99.5 41.5 t-41.5 99.5zM338 254q0 -123 78 -123q33 0 71.5 21.5t67.5 50.5v237q-15 -7 -42.5 -17t-47.5 -17.5t-44.5 -21.5t-40 -30t-28 -42t-14.5 -58zM520 1108q0 58 41.5 99.5t100.5 41.5q58 0 99.5 -41.5t41.5 -99.5t-41.5 -99.5t-99.5 -41.5q-59 0 -100.5 41.5t-41.5 99.5z" />
<glyph unicode="&#xe5;" horiz-adv-x="1040" d="M74 201q0 68 23 119t58.5 79t88.5 50.5t101 33.5t109.5 27.5t100.5 32.5v53q0 46 -3 74.5t-12.5 57.5t-30.5 42.5t-54 13.5q-49 0 -77.5 -20t-40 -49t-20.5 -58t-30 -49t-58 -20q-50 0 -95.5 24t-45.5 62q0 52 39 94.5t98.5 66.5t120.5 37t113 13q82 0 144.5 -13.5 t113 -43.5t77.5 -84.5t27 -131.5v-501q63 47 68 102h127q-72 -236 -248 -236q-73 0 -122 31.5t-64 87.5q-55 -54 -124 -85t-139 -31q-111 0 -178 62t-67 159zM274 1118q0 76 64.5 132.5t153.5 56.5q92 0 157.5 -58.5t65.5 -136.5q0 -76 -65 -129t-158 -53q-89 0 -153.5 55.5 t-64.5 132.5zM338 254q0 -123 78 -123q33 0 71.5 21.5t67.5 50.5v237q-15 -7 -42.5 -17t-47.5 -17.5t-44.5 -21.5t-40 -30t-28 -42t-14.5 -58zM428 1118q0 -26 25 -48.5t39 -22.5q20 0 45.5 22t25.5 49h-4q0 26 -24 49t-43 23q-14 0 -39 -23.5t-25 -48.5z" />
<glyph unicode="&#xe7;" horiz-adv-x="944" d="M74 391q0 131 54 240t160.5 176t246.5 67q45 0 100.5 -11.5t109 -33t89.5 -58t36 -79.5q0 -45 -43 -71.5t-108 -26.5q-43 0 -71 27t-39.5 59t-30.5 59t-46 27q-47 0 -82.5 -30.5t-54.5 -80.5t-28 -102.5t-9 -106.5q0 -61 12 -121.5t35.5 -116t66.5 -90t99 -34.5 q71 0 117 38t86 120l139 -29q-42 -120 -134 -182.5t-208 -67.5l-10 -53q70 -17 116 -59.5t46 -108.5q0 -89 -72.5 -144t-177.5 -55q-103 0 -244 72l88 72q77 -41 125 -41q22 0 39 27t17 61q0 65 -113 102l43 131q-168 38 -261 145.5t-93 278.5z" />
<glyph unicode="&#xe8;" horiz-adv-x="993" d="M74 426q0 124 53 227t158.5 167.5t244.5 64.5q125 0 217.5 -62t136.5 -160t44 -217h-572q9 -356 213 -356q75 0 130.5 38.5t113.5 115.5l131 -45q-154 -222 -405 -222q-140 0 -247 61t-162.5 162.5t-55.5 225.5zM244 1214q0 14 14.5 22.5t38.5 8.5q19 0 71 -10t83 -10 q78 0 137 22l127 -276q-22 -37 -70 -37q-28 0 -63 14l-310 228q-28 22 -28 38zM360 553h304v16q0 90 -34 146.5t-108 56.5q-77 0 -116 -63t-46 -156z" />
<glyph unicode="&#xe9;" horiz-adv-x="993" d="M74 426q0 124 53 227t158.5 167.5t244.5 64.5q125 0 217.5 -62t136.5 -160t44 -217h-572q9 -356 213 -356q75 0 130.5 38.5t113.5 115.5l131 -45q-154 -222 -405 -222q-140 0 -247 61t-162.5 162.5t-55.5 225.5zM346 973q0 2 1 5t1 5l125 264q91 -24 143 -24 q23 0 76.5 13t79.5 13q24 0 37.5 -8.5t13.5 -21.5q0 -26 -43 -45l-311 -226q-30 -10 -66 -10q-57 0 -57 35zM360 553h304v16q0 90 -34 146.5t-108 56.5q-77 0 -116 -63t-46 -156z" />
<glyph unicode="&#xea;" horiz-adv-x="993" d="M74 426q0 124 53 227t158.5 167.5t244.5 64.5q125 0 217.5 -62t136.5 -160t44 -217h-572q9 -356 213 -356q75 0 130.5 38.5t113.5 115.5l131 -45q-154 -222 -405 -222q-140 0 -247 61t-162.5 162.5t-55.5 225.5zM246 1008q0 10 2 14l272 252l279 -252q4 -12 4 -16 q0 -24 -25.5 -44t-62.5 -20q-23 0 -35 4l-160 125l-158 -125q-8 -2 -22 -2q-38 0 -66 18.5t-28 45.5zM360 553h304v16q0 90 -34 146.5t-108 56.5q-77 0 -116 -63t-46 -156z" />
<glyph unicode="&#xeb;" horiz-adv-x="993" d="M74 426q0 124 53 227t158.5 167.5t244.5 64.5q125 0 217.5 -62t136.5 -160t44 -217h-572q9 -356 213 -356q75 0 130.5 38.5t113.5 115.5l131 -45q-154 -222 -405 -222q-140 0 -247 61t-162.5 162.5t-55.5 225.5zM174 1108q0 58 41 99.5t100 41.5t100.5 -41.5t41.5 -99.5 t-41.5 -99.5t-100.5 -41.5t-100 41.5t-41 99.5zM360 553h304v16q0 90 -34 146.5t-108 56.5q-77 0 -116 -63t-46 -156zM569 1108q0 58 41.5 99.5t100.5 41.5t100 -41.5t41 -99.5t-41 -99.5t-100 -41.5t-100.5 41.5t-41.5 99.5z" />
<glyph unicode="&#xec;" horiz-adv-x="645" d="M47 1212q0 15 15 24t40 9q16 0 65.5 -10t80.5 -10q77 0 133 22l131 -280q-24 -33 -68 -33q-30 0 -61 14l-309 228q-27 18 -27 36zM80 0v100q74 1 99.5 35t25.5 105v340q0 69 -27 103.5t-98 37.5v98q48 5 102 13.5t83.5 14t102.5 20t95 18.5v-645q0 -72 27.5 -105.5 t107.5 -34.5v-100h-518z" />
<glyph unicode="&#xed;" horiz-adv-x="645" d="M70 989v6l127 265q89 -25 137 -25q23 0 75 13.5t78 13.5q23 0 37.5 -9.5t14.5 -21.5q0 -25 -41 -45l-308 -225q-22 -11 -61 -11q-59 0 -59 39zM80 0v100q74 1 99.5 35t25.5 105v340q0 69 -27 103.5t-98 37.5v98q48 5 102 13.5t83.5 14t102.5 20t95 18.5v-645 q0 -72 27.5 -105.5t107.5 -34.5v-100h-518z" />
<glyph unicode="&#xee;" horiz-adv-x="638" d="M12 983q0 19 19 41l268 250l264 -248q17 -11 17 -31q0 -22 -25.5 -41.5t-58.5 -19.5q-25 0 -47 14l-150 123l-152 -123q-35 -18 -69 -18q-30 0 -48 15.5t-18 37.5zM74 0v100q74 1 99.5 35t25.5 105v340q0 69 -27 103.5t-98 37.5v98q48 5 102 13.5t83.5 14t102.5 20 t95 18.5v-645q0 -72 27.5 -105.5t107.5 -34.5v-100h-518z" />
<glyph unicode="&#xef;" horiz-adv-x="638" d="M-16 1108q0 58 41 99.5t100 41.5t100 -41.5t41 -99.5t-41 -99.5t-100 -41.5t-100 41.5t-41 99.5zM74 0v100q74 1 99.5 35t25.5 105v340q0 69 -27 103.5t-98 37.5v98q48 5 102 13.5t83.5 14t102.5 20t95 18.5v-645q0 -72 27.5 -105.5t107.5 -34.5v-100h-518zM379 1108 q0 58 41.5 99.5t99.5 41.5q59 0 100.5 -41.5t41.5 -99.5t-41.5 -99.5t-100.5 -41.5q-58 0 -99.5 41.5t-41.5 99.5z" />
<glyph unicode="&#xf0;" horiz-adv-x="1110" d="M72 418q0 206 130.5 336.5t348.5 130.5q64 0 137 -25q-18 88 -51.5 153t-93.5 120l-226 -150l-90 92l189 121q-108 52 -246 80l59 84q193 -10 330 -82l234 149l90 -92l-187 -118q170 -140 251 -318.5t81 -406.5q0 -109 -28.5 -201t-85 -163t-150 -111t-215.5 -40 q-217 0 -347 118.5t-130 322.5zM356 412q0 -64 8.5 -119t28 -107t58.5 -82t94 -30q46 0 81.5 22t56 56t34 82t18 93.5t4.5 96.5q0 362 -190 362q-61 0 -102 -34t-59.5 -94.5t-25 -117t-6.5 -128.5z" />
<glyph unicode="&#xf1;" horiz-adv-x="1153" d="M55 0v100q71 1 97 35.5t26 104.5v340q0 67 -28 101.5t-95 37.5v96q190 25 336 62q34 -50 41 -105q117 111 268 111q297 0 297 -289v-354q0 -72 24 -105.5t97 -34.5v-100h-518v100q71 1 97 35.5t26 104.5v331q0 172 -123 172q-73 0 -154 -88v-415q0 -70 27.5 -104.5 t101.5 -35.5v-100h-520zM203 1008q135 200 272 200q50 0 143 -27.5t142 -27.5q20 0 39.5 9t32.5 19.5t36 32.5l107 -38q-70 -89 -134.5 -139t-142.5 -50q-48 0 -141.5 26.5t-142.5 26.5q-19 0 -38.5 -11.5t-29.5 -22t-33 -35.5z" />
<glyph unicode="&#xf2;" horiz-adv-x="1095" d="M74 420q0 209 127.5 337t351.5 128q222 0 345.5 -124t123.5 -333q0 -200 -131.5 -325.5t-345.5 -125.5q-216 0 -343.5 118.5t-127.5 324.5zM303 1217q0 12 14.5 20t38.5 8q16 0 68 -10t84 -10q78 0 137 22l131 -276q-16 -37 -65 -37q-31 0 -66 14l-311 228q-31 22 -31 41 zM358 412q0 -50 4.5 -94.5t17.5 -90.5t33.5 -79t54 -53.5t77.5 -20.5q47 0 82.5 22t56 56t33.5 82t17.5 93t4.5 97q0 56 -3 100t-14.5 96t-31.5 86t-56.5 57t-86.5 23q-49 0 -85 -24t-55.5 -60t-31 -89.5t-14.5 -98.5t-3 -102z" />
<glyph unicode="&#xf3;" horiz-adv-x="1095" d="M74 420q0 209 127.5 337t351.5 128q222 0 345.5 -124t123.5 -333q0 -200 -131.5 -325.5t-345.5 -125.5q-216 0 -343.5 118.5t-127.5 324.5zM358 412q0 -50 4.5 -94.5t17.5 -90.5t33.5 -79t54 -53.5t77.5 -20.5q47 0 82.5 22t56 56t33.5 82t17.5 93t4.5 97q0 56 -3 100 t-14.5 96t-31.5 86t-56.5 57t-86.5 23q-49 0 -85 -24t-55.5 -60t-31 -89.5t-14.5 -98.5t-3 -102zM379 973q0 2 1 5t1 5l129 264q89 -24 143 -24q23 0 76.5 13t79.5 13q24 0 37.5 -8.5t13.5 -21.5q0 -26 -43 -45l-311 -226q-30 -10 -68 -10q-59 0 -59 35z" />
<glyph unicode="&#xf4;" horiz-adv-x="1095" d="M74 418q0 208 128 335.5t351 127.5q222 0 345.5 -124t123.5 -333q0 -199 -131.5 -323t-345.5 -124q-216 0 -343.5 118t-127.5 323zM264 991q0 23 12 35l271 248l274 -248q17 -11 17 -33q0 -24 -23.5 -44.5t-54.5 -20.5q-29 0 -55 20l-158 123l-158 -123q-37 -12 -59 -12 q-33 0 -49.5 16t-16.5 39zM358 410q0 -49 4.5 -93.5t17.5 -90t33.5 -78.5t54 -53.5t77.5 -20.5q47 0 82.5 21.5t56 55.5t33.5 81.5t17.5 92t4.5 95.5q0 46 -2.5 83t-8.5 81t-19.5 76.5t-34 61t-53 43.5t-74.5 15q-41 0 -73 -15.5t-52 -45t-33.5 -63t-19.5 -79t-8.5 -83.5 t-2.5 -84z" />
<glyph unicode="&#xf5;" horiz-adv-x="1095" d="M74 418q0 209 127.5 337t351.5 128q222 0 345.5 -124t123.5 -333q0 -199 -131.5 -324t-345.5 -125q-216 0 -343.5 118t-127.5 323zM166 1008q64 90 130.5 145t143.5 55q47 0 140.5 -27.5t140.5 -27.5q28 0 50 14.5t56 46.5l103 -38q-66 -88 -130 -138.5t-143 -50.5 q-47 0 -138.5 26.5t-139.5 26.5q-25 0 -47 -17t-53 -52zM358 410q0 -49 4.5 -93.5t17.5 -90t33.5 -78.5t54 -53.5t77.5 -20.5q47 0 82.5 22t56 56t33.5 81.5t17.5 92.5t4.5 96q0 56 -3 100t-14.5 96t-31.5 86t-56.5 57t-86.5 23q-49 0 -85 -24t-55.5 -60t-31 -89.5 t-14.5 -98.5t-3 -102z" />
<glyph unicode="&#xf6;" horiz-adv-x="1095" d="M74 420q0 209 127.5 337t351.5 128q222 0 345.5 -124t123.5 -333q0 -200 -131.5 -325.5t-345.5 -125.5q-216 0 -343.5 118.5t-127.5 324.5zM199 1108q0 58 41.5 99.5t99.5 41.5t99.5 -41.5t41.5 -99.5t-41.5 -99.5t-99.5 -41.5t-99.5 41.5t-41.5 99.5zM358 412 q0 -50 4.5 -94.5t17.5 -90.5t33.5 -79t54 -53.5t77.5 -20.5q47 0 82.5 22t56 56t33.5 82t17.5 93t4.5 97q0 56 -3 100t-14.5 96t-31.5 86t-56.5 57t-86.5 23q-49 0 -85 -24t-55.5 -60t-31 -89.5t-14.5 -98.5t-3 -102zM594 1108q0 58 41 99.5t100 41.5t100.5 -41.5 t41.5 -99.5t-41.5 -99.5t-100.5 -41.5t-100 41.5t-41 99.5z" />
<glyph unicode="&#xf7;" horiz-adv-x="1064" d="M31 637v137h1001v-137h-1001zM399 315q0 58 41.5 99t100.5 41t100 -41t41 -99q0 -57 -41 -96t-100 -39t-100.5 39t-41.5 96zM399 1094q0 58 41.5 98.5t100.5 40.5t100 -40.5t41 -98.5q0 -57 -41 -96.5t-100 -39.5t-100.5 39.5t-41.5 96.5z" />
<glyph unicode="&#xf8;" horiz-adv-x="1114" d="M72 18l100 117q-84 110 -84 285q0 206 127.5 331.5t349.5 125.5q134 0 236 -60l102 117l127 -70l-102 -116q108 -105 108 -320q0 -197 -131.5 -319.5t-343.5 -122.5q-150 0 -262 73l-100 -110zM360 332q0 -7 1 -20t1 -19l320 428q-48 57 -119 57q-41 0 -73.5 -15 t-53 -37.5t-36 -59t-23 -69t-11.5 -79t-5 -77t-1 -74.5v-35zM424 164q25 -38 62 -60t75 -22q57 0 97 31t60 84t28 107.5t8 117.5q0 24 8 75t8 76q0 5 -1 14.5t-1 14.5z" />
<glyph unicode="&#xf9;" horiz-adv-x="1126" d="M14 750v100h387v-559q0 -172 125 -172q45 0 80 21.5t80 64.5v405q0 69 -28 104t-99 36v100h389v-610q0 -68 28.5 -103.5t102.5 -36.5v-100q-173 0 -346 -12q-21 44 -33 100q-124 -111 -270 -111q-293 0 -293 287v346q0 70 -26 104.5t-97 35.5zM293 1210q0 11 14.5 18 t38.5 7q20 0 73 -9t85 -9q76 0 137 20l117 -250q-13 -33 -60 -33q-29 0 -55 13l-317 207q-35 22 -33 36z" />
<glyph unicode="&#xfa;" horiz-adv-x="1126" d="M14 750v100h387v-559q0 -172 125 -172q45 0 80 21.5t80 64.5v405q0 69 -28 104t-99 36v100h389v-610q0 -68 28.5 -103.5t102.5 -36.5v-100q-173 0 -346 -12q-21 44 -33 100q-124 -111 -270 -111q-293 0 -293 287v346q0 70 -26 104.5t-97 35.5zM350 973q0 2 1 5t1 5 l129 264q92 -24 148 -24q24 0 76.5 13t78.5 13t41 -9t15 -23q0 -24 -43 -43l-318 -226q-35 -10 -69 -10q-60 0 -60 35z" />
<glyph unicode="&#xfb;" horiz-adv-x="1126" d="M14 750v100h387v-559q0 -172 125 -172q45 0 80 21.5t80 64.5v405q0 69 -28 104t-99 36v100h389v-610q0 -68 28.5 -103.5t102.5 -36.5v-100q-173 0 -346 -12q-21 44 -33 100q-124 -111 -270 -111q-293 0 -293 287v346q0 70 -26 104.5t-97 35.5zM254 993q0 16 12 31 l279 250l276 -248q15 -15 15 -29q0 -23 -29 -42t-62 -19q-25 0 -43 12l-157 123l-162 -123q-18 -6 -41 -6q-34 0 -61 14.5t-27 36.5z" />
<glyph unicode="&#xfc;" horiz-adv-x="1126" d="M14 750v100h387v-559q0 -172 125 -172q45 0 80 21.5t80 64.5v405q0 69 -28 104t-99 36v100h389v-610q0 -68 28.5 -103.5t102.5 -36.5v-100q-173 0 -346 -12q-21 44 -33 100q-124 -111 -270 -111q-293 0 -293 287v346q0 70 -26 104.5t-97 35.5zM168 1108q0 58 41 99.5 t100 41.5t100.5 -41.5t41.5 -99.5t-41.5 -99.5t-100.5 -41.5t-100 41.5t-41 99.5zM563 1108q0 58 41.5 99.5t100.5 41.5t100 -41.5t41 -99.5t-41 -99.5t-100 -41.5t-100.5 41.5t-41.5 99.5z" />
<glyph unicode="&#xfd;" horiz-adv-x="1056" d="M12 750v100h484v-100q-47 -2 -65.5 -6t-18.5 -17q0 -2 -2 -11t-2.5 -15t2.5 -13l186 -381l158 344q2 2 2 21q0 11 -1 30l-1 19q0 29 -60 29h-16v100h391v-100q-54 -5 -84.5 -18.5t-46.5 -47.5l-422 -889q-18 -38 -26.5 -54.5t-31 -57t-38 -62t-42.5 -53t-51 -48.5 t-55.5 -29.5t-64.5 -12.5q-65 0 -110.5 27t-45.5 75q0 33 24 69t68 36q13 0 33 -18.5t33 -18.5h8q13 2 25 7t24 16.5t22 22.5t23.5 33t23 39.5t25.5 50t27.5 57t32 68t35.5 74.5l-324 666q-19 37 -45 51.5t-74 16.5zM430 997q0 1 1 4t1 5l129 241q93 -22 146 -22q24 0 77 12 t80 12q25 0 40.5 -8.5t15.5 -21.5q0 -22 -41 -39l-322 -207q-24 -8 -65 -8q-62 0 -62 32z" />
<glyph unicode="&#xfe;" horiz-adv-x="1089" d="M-18 -420q72 1 97 34.5t25 104.5v1399q0 69 -27 105t-95 39v98q213 29 331 61l21 -21t16.5 -17t9 -12.5t6.5 -16t1 -19.5v-551q43 45 103 71t122 26q98 0 179.5 -37t134 -99t81.5 -143t29 -170q0 -91 -29 -174.5t-82.5 -149t-137.5 -104.5t-185 -39q-57 0 -114.5 19 t-100.5 53v-318q0 -92 40.5 -116.5t184.5 -24.5v-100h-610v102zM367 178q75 -90 159 -90q88 0 147.5 96t59.5 256q0 149 -50 232.5t-126 83.5q-48 0 -98 -37.5t-92 -108.5v-432z" />
<glyph unicode="&#xff;" horiz-adv-x="1056" d="M12 750v100h484v-100q-47 -2 -65.5 -6t-18.5 -17q0 -2 -2 -11t-2.5 -15t2.5 -13l192 -399l152 362q2 2 2 21q0 11 -1 30l-1 19q0 29 -60 29h-16v100h391v-100q-54 -5 -84.5 -18.5t-46.5 -47.5l-422 -889q-18 -38 -26.5 -54.5t-31 -57t-38 -62t-42.5 -53t-51 -48.5 t-55.5 -29.5t-64.5 -12.5q-65 0 -110.5 27t-45.5 75q0 33 24 69t68 36q13 0 33 -18.5t33 -18.5h8q13 2 25 7t24 16.5t22 22.5t23.5 33t23 39.5t25.5 50t27.5 57t32 68t35.5 74.5l-324 666q-19 37 -45 51.5t-74 16.5zM199 1108q0 58 41.5 99.5t99.5 41.5t99.5 -41.5 t41.5 -99.5t-41.5 -99.5t-99.5 -41.5t-99.5 41.5t-41.5 99.5zM594 1108q0 58 41 99.5t100 41.5t100.5 -41.5t41.5 -99.5t-41.5 -99.5t-100.5 -41.5t-100 41.5t-41 99.5z" />
<glyph unicode="&#x178;" horiz-adv-x="1464" d="M-8 1272v102h667v-102h-81h-11q-35 0 -35 -31q0 -7 2.5 -15t7.5 -17.5t7 -14.5l266 -418l254 418q-10 14 -10 41q0 23 -25 30t-78 7h-75v102h583v-102q-94 -5 -150.5 -30.5t-94.5 -88.5l-334 -543v-368q0 -39 9 -64.5t21.5 -40t40 -22t49 -10t64.5 -3.5v-102h-694v102 q41 2 57.5 3t46 4t40.5 8.5t28 15.5t23 24.5t11 35.5t5 49v366l-379 563q-37 56 -84 77t-131 24zM416 1579q0 53 37 90t90 37t90 -37t37 -90t-37 -90t-90 -37t-90 37t-37 90zM807 1579q0 53 37.5 90t89.5 37t89.5 -37t37.5 -90t-37.5 -90t-89.5 -37t-89.5 37t-37.5 90z" />
<glyph unicode="&#x2c6;" horiz-adv-x="704" d="M55 1014q0 17 17 37l280 223l279 -221q14 -11 14 -27q0 -21 -24 -37t-58 -16q-22 0 -49 10l-162 109l-159 -109q-40 -12 -70 -12q-32 0 -50 12t-18 31z" />
<glyph unicode="&#x2dc;" horiz-adv-x="878" d="M31 1040q141 170 280 170q49 0 142.5 -23.5t142.5 -23.5q30 0 53.5 12t57.5 39l106 -32q-68 -73 -134 -115.5t-147 -42.5q-46 0 -140 21.5t-144 21.5q-7 0 -13.5 -0.5t-13 -3t-11 -4t-11.5 -6t-10.5 -6.5t-11 -8.5t-10 -8.5t-11.5 -10t-11 -10z" />
<glyph unicode="&#x2000;" horiz-adv-x="896" />
<glyph unicode="&#x2001;" horiz-adv-x="1792" />
<glyph unicode="&#x2002;" horiz-adv-x="896" />
<glyph unicode="&#x2003;" horiz-adv-x="1792" />
<glyph unicode="&#x2004;" horiz-adv-x="597" />
<glyph unicode="&#x2005;" horiz-adv-x="448" />
<glyph unicode="&#x2006;" horiz-adv-x="298" />
<glyph unicode="&#x2007;" horiz-adv-x="298" />
<glyph unicode="&#x2008;" horiz-adv-x="224" />
<glyph unicode="&#x2009;" horiz-adv-x="358" />
<glyph unicode="&#x200a;" horiz-adv-x="99" />
<glyph unicode="&#x2010;" horiz-adv-x="745" d="M117 389v143h512v-143h-512z" />
<glyph unicode="&#x2011;" horiz-adv-x="745" d="M117 389v143h512v-143h-512z" />
<glyph unicode="&#x2012;" horiz-adv-x="745" d="M117 389v143h512v-143h-512z" />
<glyph unicode="&#x2013;" horiz-adv-x="1024" d="M117 389v143h790v-143h-790z" />
<glyph unicode="&#x2014;" horiz-adv-x="2048" d="M117 389v143h1814v-143h-1814z" />
<glyph unicode="&#x2018;" horiz-adv-x="524" d="M78 1051q0 115 94.5 212t245.5 138v-70q-83 -61 -113.5 -104t-30.5 -92q0 -22 7 -66q8 2 18 2q65 0 108.5 -37t43.5 -86q0 -50 -45.5 -86.5t-110.5 -36.5q-97 0 -157 70.5t-60 155.5z" />
<glyph unicode="&#x2019;" horiz-adv-x="524" d="M72 1276q0 51 46.5 88t110.5 37q99 0 158 -69.5t59 -155.5q0 -117 -97.5 -215.5t-248.5 -135.5v66q86 62 118 109.5t32 105.5q0 33 -2 49q-8 -2 -25 -2q-62 0 -106.5 37.5t-44.5 85.5z" />
<glyph unicode="&#x201a;" horiz-adv-x="518" d="M68 96q0 51 44.5 88t108.5 37q99 0 160 -70t61 -155q0 -116 -99 -214.5t-249 -135.5v65q86 63 118 109.5t32 103.5q0 15 -4 51q-8 -2 -21 -2q-63 0 -107 37.5t-44 85.5z" />
<glyph unicode="&#x201c;" horiz-adv-x="925" d="M78 1051q0 116 98 212.5t258 137.5v-70q-89 -62 -120 -105.5t-31 -95.5q0 -26 6 -61q8 2 22 2q68 0 114 -37t46 -86q0 -50 -48 -86.5t-118 -36.5q-101 0 -164 70.5t-63 155.5zM504 1051q0 116 98 212.5t258 137.5v-70q-89 -62 -120 -105.5t-31 -95.5q0 -26 6 -61 q8 2 22 2q68 0 114 -37t46 -86q0 -50 -48 -86.5t-118 -36.5q-101 0 -164 70.5t-63 155.5z" />
<glyph unicode="&#x201d;" horiz-adv-x="925" d="M72 1276q0 51 48 88t118 37q102 0 165.5 -70t63.5 -155q0 -117 -103.5 -215.5t-263.5 -135.5v66q92 64 125 111t33 106q0 31 -2 47q-8 -2 -25 -2q-67 0 -113 37t-46 86zM512 1276q0 51 48 88t118 37q102 0 165.5 -70t63.5 -155q0 -117 -103 -215.5t-263 -135.5v66 q92 64 124.5 111t32.5 106q0 31 -2 47q-8 -2 -24 -2q-67 0 -113.5 37t-46.5 86z" />
<glyph unicode="&#x201e;" horiz-adv-x="925" d="M68 96q0 52 47.5 88.5t117.5 36.5q102 0 166 -70t64 -155q0 -117 -103 -215t-262 -135v65q90 63 124 109.5t34 103.5q0 15 -4 51q-8 -2 -25 -2q-66 0 -112.5 37.5t-46.5 85.5zM475 96q0 51 48 88t118 37q102 0 165.5 -70t63.5 -155q0 -117 -102.5 -215t-261.5 -135v65 q90 63 124 109.5t34 103.5q0 6 -5 51q-8 -2 -24 -2q-66 0 -113 37.5t-47 85.5z" />
<glyph unicode="&#x2022;" horiz-adv-x="735" d="M90 598q0 114 82.5 196.5t192.5 82.5t192 -82.5t82 -196.5t-82 -196.5t-192 -82.5t-192.5 82.5t-82.5 196.5z" />
<glyph unicode="&#x2026;" horiz-adv-x="1490" d="M115 98q0 52 37 88.5t90 36.5t90 -36.5t37 -88.5t-37 -88.5t-90 -36.5t-90 36.5t-37 88.5zM616 98q0 52 37 88.5t90 36.5t90 -36.5t37 -88.5t-37 -88.5t-90 -36.5t-90 36.5t-37 88.5zM1098 98q0 52 37 88.5t90 36.5t90 -36.5t37 -88.5t-37 -88.5t-90 -36.5t-90 36.5 t-37 88.5z" />
<glyph unicode="&#x202f;" horiz-adv-x="358" />
<glyph unicode="&#x2039;" horiz-adv-x="593" d="M35 444q0 13 12.5 27.5t30.5 22.5l248 231q6 3 30 17.5t39.5 21.5t32.5 10q39 0 65.5 -11.5t26.5 -33.5q0 -32 -39 -65l-162 -220l164 -219q37 -27 37 -61v-4q0 -18 -27 -31.5t-61 -13.5q-19 0 -35.5 6.5t-42 23.5l-28.5 19l-248 231q-43 22 -43 49z" />
<glyph unicode="&#x203a;" horiz-adv-x="591" d="M72 160q0 37 32 65l166 219l-168 220q-3 5 -9.5 14.5t-10.5 15.5t-7 14.5t-3 16.5q0 20 21 34.5t59 14.5q19 0 37 -7t44.5 -23.5t30.5 -18.5l250 -231q3 -3 10.5 -9t12 -10t10 -9.5t8 -11t2.5 -10.5q0 -20 -43 -49l-250 -231q-7 -4 -30.5 -19.5t-40.5 -22.5t-35 -7 q-86 0 -86 45z" />
<glyph unicode="&#x205f;" horiz-adv-x="448" />
<glyph unicode="&#x20ac;" horiz-adv-x="1146" d="M16 489l84 123h76l-2 86h-158l84 123h84q18 132 66.5 243.5t112 183t135 111.5t139.5 40q49 0 100.5 -18t91.5 -36t60 -18q39 0 53 64l125 6v-418l-115 4q-16 48 -39 97.5t-56.5 101.5t-77.5 85t-89 33q-30 0 -60 -13.5t-63 -48t-60 -86.5t-48.5 -137.5t-30.5 -193.5h451 l-91 -123h-370v-86h323l-82 -123h-231q9 -94 43 -180.5t76 -140t81 -85.5t62 -32q25 0 49.5 18.5t42.5 46.5t41.5 60t46 60t56 46.5t71.5 18.5q55 0 103 -51v-4q0 -153 -129 -201q-158 -84 -273 -84q-162 0 -342 152q-69 76 -108 166t-60 210h-172z" />
<glyph unicode="&#x2122;" horiz-adv-x="1435" d="M33 1237l18 143h537l20 -143h-78q-24 88 -90 88h-51v-344q0 -26 11 -32.5t42 -6.5h23v-53h-297v53h20q30 0 42 6.5t12 32.5v344h-49q-34 0 -50 -21.5t-28 -66.5h-82zM614 889v53q47 0 60.5 14.5t13.5 55.5v282q0 15 -9.5 22.5t-20.5 9t-31 1.5h-13v53h217l146 -313 l143 313h219v-53q-6 0 -19 -0.5t-17.5 -0.5t-12.5 -1.5t-11 -4t-7 -6.5t-5 -10.5t-1 -15.5v-313q0 -7 1 -12t1.5 -8.5t3 -6t3.5 -4t5 -2t4.5 -0.5h5.5h6h43v-53h-299v53h23q34 0 41.5 7.5t7.5 43.5l-2 160l-121 -264h-69l-134 276v-137q0 -27 1.5 -38.5t8.5 -24.5t24 -17.5 t46 -5.5v-53h-252z" />
<glyph unicode="&#x25fc;" horiz-adv-x="849" d="M0 0v850h850v-850h-850z" />
</font>
</defs>
</svg>
